G75*
%MOIN*%
%OFA0B0*%
%FSLAX25Y25*%
%IPPOS*%
%LPD*%
%AMOC8*
5,1,8,0,0,1.08239X$1,22.5*
%
%ADD10C,0.19600*%
%ADD11R,0.04537X0.04931*%
%ADD12R,0.06600X0.06600*%
%ADD13C,0.06600*%
%ADD14R,0.03356X0.04931*%
%ADD15C,0.01361*%
%ADD16R,0.07293X0.03946*%
%ADD17C,0.05400*%
%ADD18R,0.05324X0.05324*%
%ADD19C,0.05324*%
%ADD20R,0.02765X0.05324*%
%ADD21R,0.12411X0.12411*%
%ADD22R,0.12411X0.07687*%
%ADD23R,0.11624X0.07687*%
%ADD24R,0.07687X0.11624*%
%ADD25C,0.06112*%
%ADD26OC8,0.06600*%
%ADD27OC8,0.05324*%
%ADD28C,0.03750*%
%ADD29R,0.10049X0.11624*%
%ADD30C,0.16400*%
%ADD31C,0.14400*%
%ADD32R,0.02962X0.06702*%
%ADD33C,0.07200*%
%ADD34R,0.08868X0.08868*%
%ADD35OC8,0.08868*%
%ADD36OC8,0.03969*%
%ADD37OC8,0.04362*%
%ADD38C,0.04362*%
%ADD39R,0.04362X0.04362*%
%ADD40C,0.03500*%
%ADD41C,0.03300*%
D10*
X0026178Y0023300D03*
X0026178Y0210300D03*
X0374178Y0021300D03*
X0378678Y0296800D03*
D11*
X0339178Y0226646D03*
X0339178Y0219954D03*
X0325178Y0219954D03*
X0325178Y0226646D03*
X0311178Y0226646D03*
X0311178Y0219954D03*
X0297178Y0219954D03*
X0297178Y0226646D03*
X0283178Y0226646D03*
X0283178Y0219954D03*
X0269678Y0219954D03*
X0269678Y0226646D03*
X0252178Y0226646D03*
X0252178Y0219954D03*
X0237178Y0219954D03*
X0237178Y0226646D03*
X0222178Y0226646D03*
X0222178Y0219954D03*
X0207178Y0219954D03*
X0207178Y0226646D03*
X0170178Y0301454D03*
X0170178Y0308146D03*
X0040178Y0254646D03*
X0040178Y0247954D03*
X0040178Y0239646D03*
X0040178Y0232954D03*
X0026178Y0233954D03*
X0026178Y0240646D03*
X0070178Y0149646D03*
X0070178Y0142954D03*
X0084178Y0142954D03*
X0084178Y0135646D03*
X0084178Y0128954D03*
X0099178Y0128954D03*
X0099178Y0135646D03*
X0099178Y0142954D03*
X0099178Y0149646D03*
X0084178Y0149646D03*
X0090178Y0109646D03*
X0090178Y0102954D03*
X0090178Y0093646D03*
X0090178Y0086954D03*
X0024178Y0087954D03*
X0024178Y0094646D03*
X0024178Y0053146D03*
X0024178Y0046454D03*
D12*
X0069678Y0044800D03*
X0159678Y0034800D03*
X0159678Y0024800D03*
X0186178Y0133300D03*
X0188678Y0191800D03*
X0188678Y0201800D03*
X0188678Y0211800D03*
X0280178Y0133300D03*
X0290678Y0191800D03*
X0290678Y0201800D03*
X0290678Y0211800D03*
X0373178Y0089300D03*
D13*
X0350178Y0093300D03*
X0350178Y0083300D03*
X0350178Y0073300D03*
X0350178Y0063300D03*
X0350178Y0053300D03*
X0350178Y0043300D03*
X0350178Y0033300D03*
X0350178Y0023300D03*
X0280178Y0023300D03*
X0280178Y0033300D03*
X0280178Y0043300D03*
X0280178Y0053300D03*
X0280178Y0063300D03*
X0280178Y0073300D03*
X0280178Y0083300D03*
X0280178Y0093300D03*
X0280178Y0103300D03*
X0280178Y0113300D03*
X0280178Y0123300D03*
X0256178Y0123300D03*
X0256178Y0113300D03*
X0256178Y0103300D03*
X0256178Y0093300D03*
X0256178Y0083300D03*
X0256178Y0073300D03*
X0256178Y0063300D03*
X0256178Y0053300D03*
X0256178Y0043300D03*
X0256178Y0033300D03*
X0256178Y0023300D03*
X0186178Y0023300D03*
X0186178Y0033300D03*
X0186178Y0043300D03*
X0186178Y0053300D03*
X0186178Y0063300D03*
X0186178Y0073300D03*
X0186178Y0083300D03*
X0186178Y0093300D03*
X0186178Y0103300D03*
X0186178Y0113300D03*
X0186178Y0123300D03*
X0256178Y0133300D03*
X0350178Y0133300D03*
X0350178Y0123300D03*
X0350178Y0113300D03*
X0350178Y0103300D03*
D14*
X0353438Y0286410D03*
X0353438Y0300190D03*
X0335918Y0300190D03*
X0335918Y0286410D03*
X0310938Y0286410D03*
X0310938Y0300190D03*
X0293418Y0300190D03*
X0293418Y0286410D03*
D15*
X0298590Y0241341D02*
X0301766Y0241341D01*
X0301766Y0238165D01*
X0298590Y0238165D01*
X0298590Y0241341D01*
X0298590Y0239525D02*
X0301766Y0239525D01*
X0301766Y0240885D02*
X0298590Y0240885D01*
X0298590Y0234435D02*
X0301766Y0234435D01*
X0301766Y0231259D01*
X0298590Y0231259D01*
X0298590Y0234435D01*
X0298590Y0232619D02*
X0301766Y0232619D01*
X0301766Y0233979D02*
X0298590Y0233979D01*
X0309590Y0234435D02*
X0312766Y0234435D01*
X0312766Y0231259D01*
X0309590Y0231259D01*
X0309590Y0234435D01*
X0309590Y0232619D02*
X0312766Y0232619D01*
X0312766Y0233979D02*
X0309590Y0233979D01*
X0309590Y0241341D02*
X0312766Y0241341D01*
X0312766Y0238165D01*
X0309590Y0238165D01*
X0309590Y0241341D01*
X0309590Y0239525D02*
X0312766Y0239525D01*
X0312766Y0240885D02*
X0309590Y0240885D01*
X0320590Y0241341D02*
X0323766Y0241341D01*
X0323766Y0238165D01*
X0320590Y0238165D01*
X0320590Y0241341D01*
X0320590Y0239525D02*
X0323766Y0239525D01*
X0323766Y0240885D02*
X0320590Y0240885D01*
X0320590Y0234435D02*
X0323766Y0234435D01*
X0323766Y0231259D01*
X0320590Y0231259D01*
X0320590Y0234435D01*
X0320590Y0232619D02*
X0323766Y0232619D01*
X0323766Y0233979D02*
X0320590Y0233979D01*
X0330590Y0234435D02*
X0333766Y0234435D01*
X0333766Y0231259D01*
X0330590Y0231259D01*
X0330590Y0234435D01*
X0330590Y0232619D02*
X0333766Y0232619D01*
X0333766Y0233979D02*
X0330590Y0233979D01*
X0330590Y0241341D02*
X0333766Y0241341D01*
X0333766Y0238165D01*
X0330590Y0238165D01*
X0330590Y0241341D01*
X0330590Y0239525D02*
X0333766Y0239525D01*
X0333766Y0240885D02*
X0330590Y0240885D01*
X0284266Y0241341D02*
X0281090Y0241341D01*
X0284266Y0241341D02*
X0284266Y0238165D01*
X0281090Y0238165D01*
X0281090Y0241341D01*
X0281090Y0239525D02*
X0284266Y0239525D01*
X0284266Y0240885D02*
X0281090Y0240885D01*
X0281090Y0234435D02*
X0284266Y0234435D01*
X0284266Y0231259D01*
X0281090Y0231259D01*
X0281090Y0234435D01*
X0281090Y0232619D02*
X0284266Y0232619D01*
X0284266Y0233979D02*
X0281090Y0233979D01*
X0271266Y0234435D02*
X0268090Y0234435D01*
X0271266Y0234435D02*
X0271266Y0231259D01*
X0268090Y0231259D01*
X0268090Y0234435D01*
X0268090Y0232619D02*
X0271266Y0232619D01*
X0271266Y0233979D02*
X0268090Y0233979D01*
X0268090Y0241341D02*
X0271266Y0241341D01*
X0271266Y0238165D01*
X0268090Y0238165D01*
X0268090Y0241341D01*
X0268090Y0239525D02*
X0271266Y0239525D01*
X0271266Y0240885D02*
X0268090Y0240885D01*
X0256266Y0241341D02*
X0253090Y0241341D01*
X0256266Y0241341D02*
X0256266Y0238165D01*
X0253090Y0238165D01*
X0253090Y0241341D01*
X0253090Y0239525D02*
X0256266Y0239525D01*
X0256266Y0240885D02*
X0253090Y0240885D01*
X0246266Y0241341D02*
X0243090Y0241341D01*
X0246266Y0241341D02*
X0246266Y0238165D01*
X0243090Y0238165D01*
X0243090Y0241341D01*
X0243090Y0239525D02*
X0246266Y0239525D01*
X0246266Y0240885D02*
X0243090Y0240885D01*
X0243090Y0234435D02*
X0246266Y0234435D01*
X0246266Y0231259D01*
X0243090Y0231259D01*
X0243090Y0234435D01*
X0243090Y0232619D02*
X0246266Y0232619D01*
X0246266Y0233979D02*
X0243090Y0233979D01*
X0235266Y0234435D02*
X0232090Y0234435D01*
X0235266Y0234435D02*
X0235266Y0231259D01*
X0232090Y0231259D01*
X0232090Y0234435D01*
X0232090Y0232619D02*
X0235266Y0232619D01*
X0235266Y0233979D02*
X0232090Y0233979D01*
X0232090Y0241341D02*
X0235266Y0241341D01*
X0235266Y0238165D01*
X0232090Y0238165D01*
X0232090Y0241341D01*
X0232090Y0239525D02*
X0235266Y0239525D01*
X0235266Y0240885D02*
X0232090Y0240885D01*
X0223266Y0241341D02*
X0220090Y0241341D01*
X0223266Y0241341D02*
X0223266Y0238165D01*
X0220090Y0238165D01*
X0220090Y0241341D01*
X0220090Y0239525D02*
X0223266Y0239525D01*
X0223266Y0240885D02*
X0220090Y0240885D01*
X0220090Y0234435D02*
X0223266Y0234435D01*
X0223266Y0231259D01*
X0220090Y0231259D01*
X0220090Y0234435D01*
X0220090Y0232619D02*
X0223266Y0232619D01*
X0223266Y0233979D02*
X0220090Y0233979D01*
X0253090Y0234435D02*
X0256266Y0234435D01*
X0256266Y0231259D01*
X0253090Y0231259D01*
X0253090Y0234435D01*
X0253090Y0232619D02*
X0256266Y0232619D01*
X0256266Y0233979D02*
X0253090Y0233979D01*
X0129219Y0153888D02*
X0129219Y0150712D01*
X0126043Y0150712D01*
X0126043Y0153888D01*
X0129219Y0153888D01*
X0129219Y0152072D02*
X0126043Y0152072D01*
X0126043Y0153432D02*
X0129219Y0153432D01*
X0122313Y0153888D02*
X0122313Y0150712D01*
X0119137Y0150712D01*
X0119137Y0153888D01*
X0122313Y0153888D01*
X0122313Y0152072D02*
X0119137Y0152072D01*
X0119137Y0153432D02*
X0122313Y0153432D01*
X0122313Y0143888D02*
X0122313Y0140712D01*
X0119137Y0140712D01*
X0119137Y0143888D01*
X0122313Y0143888D01*
X0122313Y0142072D02*
X0119137Y0142072D01*
X0119137Y0143432D02*
X0122313Y0143432D01*
X0129219Y0143888D02*
X0129219Y0140712D01*
X0126043Y0140712D01*
X0126043Y0143888D01*
X0129219Y0143888D01*
X0129219Y0142072D02*
X0126043Y0142072D01*
X0126043Y0143432D02*
X0129219Y0143432D01*
X0070766Y0136341D02*
X0067590Y0136341D01*
X0070766Y0136341D02*
X0070766Y0133165D01*
X0067590Y0133165D01*
X0067590Y0136341D01*
X0067590Y0134525D02*
X0070766Y0134525D01*
X0070766Y0135885D02*
X0067590Y0135885D01*
X0067590Y0129435D02*
X0070766Y0129435D01*
X0070766Y0126259D01*
X0067590Y0126259D01*
X0067590Y0129435D01*
X0067590Y0127619D02*
X0070766Y0127619D01*
X0070766Y0128979D02*
X0067590Y0128979D01*
X0059766Y0129435D02*
X0056590Y0129435D01*
X0059766Y0129435D02*
X0059766Y0126259D01*
X0056590Y0126259D01*
X0056590Y0129435D01*
X0056590Y0127619D02*
X0059766Y0127619D01*
X0059766Y0128979D02*
X0056590Y0128979D01*
X0056590Y0136341D02*
X0059766Y0136341D01*
X0059766Y0133165D01*
X0056590Y0133165D01*
X0056590Y0136341D01*
X0056590Y0134525D02*
X0059766Y0134525D01*
X0059766Y0135885D02*
X0056590Y0135885D01*
X0027766Y0250435D02*
X0024590Y0250435D01*
X0027766Y0250435D02*
X0027766Y0247259D01*
X0024590Y0247259D01*
X0024590Y0250435D01*
X0024590Y0248619D02*
X0027766Y0248619D01*
X0027766Y0249979D02*
X0024590Y0249979D01*
X0024590Y0257341D02*
X0027766Y0257341D01*
X0027766Y0254165D01*
X0024590Y0254165D01*
X0024590Y0257341D01*
X0024590Y0255525D02*
X0027766Y0255525D01*
X0027766Y0256885D02*
X0024590Y0256885D01*
X0079590Y0301435D02*
X0082766Y0301435D01*
X0082766Y0298259D01*
X0079590Y0298259D01*
X0079590Y0301435D01*
X0079590Y0299619D02*
X0082766Y0299619D01*
X0082766Y0300979D02*
X0079590Y0300979D01*
X0079590Y0308341D02*
X0082766Y0308341D01*
X0082766Y0305165D01*
X0079590Y0305165D01*
X0079590Y0308341D01*
X0079590Y0306525D02*
X0082766Y0306525D01*
X0082766Y0307885D02*
X0079590Y0307885D01*
D16*
X0075965Y0283040D03*
X0087776Y0275166D03*
X0075965Y0267292D03*
X0087776Y0259418D03*
X0075965Y0251544D03*
X0087776Y0243670D03*
X0075965Y0235796D03*
X0087776Y0227922D03*
X0075965Y0220048D03*
X0087776Y0212174D03*
X0162579Y0220048D03*
X0174390Y0212174D03*
X0174390Y0227922D03*
X0162579Y0235796D03*
X0174390Y0243670D03*
X0162579Y0251544D03*
X0174390Y0259418D03*
X0162579Y0267292D03*
X0174390Y0275166D03*
X0162579Y0283040D03*
D17*
X0165778Y0154300D02*
X0170578Y0154300D01*
X0170578Y0144300D02*
X0165778Y0144300D01*
X0165778Y0134300D02*
X0170578Y0134300D01*
X0170578Y0124300D02*
X0165778Y0124300D01*
X0165778Y0114300D02*
X0170578Y0114300D01*
X0170578Y0104300D02*
X0165778Y0104300D01*
X0165778Y0094300D02*
X0170578Y0094300D01*
X0170578Y0084300D02*
X0165778Y0084300D01*
X0165778Y0074300D02*
X0170578Y0074300D01*
X0170578Y0064300D02*
X0165778Y0064300D01*
X0140578Y0064300D02*
X0135778Y0064300D01*
X0135778Y0074300D02*
X0140578Y0074300D01*
X0140578Y0084300D02*
X0135778Y0084300D01*
X0135778Y0094300D02*
X0140578Y0094300D01*
X0140578Y0104300D02*
X0135778Y0104300D01*
X0135778Y0114300D02*
X0140578Y0114300D01*
X0140578Y0124300D02*
X0135778Y0124300D01*
X0135778Y0134300D02*
X0140578Y0134300D01*
X0140578Y0144300D02*
X0135778Y0144300D01*
X0135778Y0154300D02*
X0140578Y0154300D01*
D18*
X0123178Y0167300D03*
X0159178Y0167300D03*
X0073178Y0168300D03*
X0063178Y0201300D03*
X0063178Y0237300D03*
X0185178Y0295300D03*
X0302678Y0257400D03*
X0346678Y0257400D03*
X0374178Y0257800D03*
X0374178Y0272800D03*
X0374178Y0242800D03*
X0374178Y0228300D03*
X0373178Y0078300D03*
X0102178Y0063300D03*
X0065178Y0110300D03*
D19*
X0065178Y0100300D03*
X0065178Y0090300D03*
X0065178Y0080300D03*
X0115178Y0080300D03*
X0115178Y0090300D03*
X0115178Y0100300D03*
X0115178Y0110300D03*
D20*
X0099418Y0162181D03*
X0095678Y0162181D03*
X0091938Y0162181D03*
X0091938Y0172419D03*
X0099418Y0172419D03*
D21*
X0058682Y0294331D03*
X0021674Y0294331D03*
D22*
X0026005Y0278583D03*
X0054351Y0278583D03*
D23*
X0051201Y0268741D03*
X0029154Y0268741D03*
D24*
X0040178Y0266772D03*
D25*
X0040178Y0278583D03*
X0040178Y0296300D03*
D26*
X0198678Y0211800D03*
X0208678Y0211800D03*
X0218678Y0211800D03*
X0228678Y0211800D03*
X0238678Y0211800D03*
X0248678Y0211800D03*
X0258678Y0211800D03*
X0268678Y0211800D03*
X0278678Y0211800D03*
X0278678Y0201800D03*
X0268678Y0201800D03*
X0258678Y0201800D03*
X0248678Y0201800D03*
X0238678Y0201800D03*
X0228678Y0201800D03*
X0218678Y0201800D03*
X0208678Y0201800D03*
X0198678Y0201800D03*
X0198678Y0191800D03*
X0208678Y0191800D03*
X0218678Y0191800D03*
X0228678Y0191800D03*
X0238678Y0191800D03*
X0248678Y0191800D03*
X0258678Y0191800D03*
X0268678Y0191800D03*
X0278678Y0191800D03*
X0300678Y0191800D03*
X0310678Y0191800D03*
X0320678Y0191800D03*
X0330678Y0191800D03*
X0340678Y0191800D03*
X0350678Y0191800D03*
X0360678Y0191800D03*
X0370678Y0191800D03*
X0380678Y0191800D03*
X0373178Y0179300D03*
X0373178Y0169300D03*
X0373178Y0159300D03*
X0373178Y0149300D03*
X0373178Y0139300D03*
X0373178Y0129300D03*
X0373178Y0119300D03*
X0373178Y0109300D03*
X0373178Y0099300D03*
X0370678Y0201800D03*
X0380678Y0201800D03*
X0380678Y0211800D03*
X0370678Y0211800D03*
X0360678Y0211800D03*
X0350678Y0211800D03*
X0350678Y0201800D03*
X0360678Y0201800D03*
X0340678Y0201800D03*
X0330678Y0201800D03*
X0330678Y0211800D03*
X0340678Y0211800D03*
X0320678Y0211800D03*
X0310678Y0211800D03*
X0310678Y0201800D03*
X0320678Y0201800D03*
X0300678Y0201800D03*
X0300678Y0211800D03*
X0159678Y0044800D03*
X0149678Y0044800D03*
X0139678Y0044800D03*
X0139678Y0034800D03*
X0149678Y0034800D03*
X0149678Y0024800D03*
X0139678Y0024800D03*
X0129678Y0024800D03*
X0119678Y0024800D03*
X0119678Y0034800D03*
X0129678Y0034800D03*
X0129678Y0044800D03*
X0119678Y0044800D03*
X0109678Y0044800D03*
X0099678Y0044800D03*
X0099678Y0034800D03*
X0109678Y0034800D03*
X0109678Y0024800D03*
X0099678Y0024800D03*
X0089678Y0024800D03*
X0079678Y0024800D03*
X0079678Y0034800D03*
X0089678Y0034800D03*
X0089678Y0044800D03*
X0079678Y0044800D03*
X0069678Y0034800D03*
X0069678Y0024800D03*
D27*
X0112178Y0063300D03*
X0113178Y0167300D03*
X0149178Y0167300D03*
X0063178Y0168300D03*
X0063178Y0191300D03*
X0063178Y0227300D03*
X0185178Y0305300D03*
X0282678Y0257400D03*
X0292678Y0257400D03*
X0326678Y0257400D03*
X0336678Y0257400D03*
X0384178Y0257800D03*
X0384178Y0272800D03*
X0384178Y0242800D03*
X0384178Y0228300D03*
X0373178Y0068300D03*
X0373178Y0058300D03*
X0373178Y0048300D03*
X0373178Y0038300D03*
D28*
X0254965Y0280646D03*
X0254965Y0300331D03*
D29*
X0239178Y0307261D03*
X0239355Y0289544D03*
X0274178Y0289544D03*
X0274178Y0307261D03*
D30*
X0218078Y0261800D02*
X0202278Y0261800D01*
D31*
X0203278Y0285400D02*
X0217078Y0285400D01*
D32*
X0038804Y0080674D03*
X0033804Y0080674D03*
X0028804Y0080674D03*
X0023804Y0080674D03*
X0023804Y0063351D03*
X0028804Y0063351D03*
X0033804Y0063351D03*
X0038804Y0063351D03*
D33*
X0185178Y0243800D03*
X0185178Y0283800D03*
D34*
X0034678Y0164300D03*
X0034678Y0112800D03*
D35*
X0034678Y0132800D03*
X0034678Y0184300D03*
D36*
X0075678Y0295800D03*
X0169678Y0296300D03*
X0277178Y0241800D03*
X0277178Y0230300D03*
X0273978Y0219800D03*
X0287678Y0220300D03*
X0305678Y0176800D03*
X0324178Y0053300D03*
X0336678Y0053300D03*
D37*
X0270178Y0052800D03*
X0195178Y0123300D03*
X0221178Y0133300D03*
X0229178Y0139800D03*
X0229178Y0149300D03*
X0221678Y0163300D03*
X0243678Y0162800D03*
X0248178Y0165800D03*
X0243678Y0178800D03*
X0195178Y0165300D03*
X0228178Y0219800D03*
X0213178Y0230300D03*
X0258678Y0219800D03*
X0316178Y0176300D03*
X0335678Y0175800D03*
X0365678Y0233300D03*
X0315678Y0300300D03*
X0238678Y0274300D03*
X0111678Y0243300D03*
X0094678Y0251300D03*
X0047678Y0254800D03*
X0093178Y0300800D03*
X0100678Y0188300D03*
X0095678Y0180800D03*
X0115178Y0151700D03*
X0123778Y0119200D03*
X0127878Y0114800D03*
X0123178Y0105800D03*
X0117678Y0116800D03*
X0146778Y0101700D03*
X0135178Y0053300D03*
X0080078Y0087600D03*
X0069678Y0073100D03*
X0057678Y0086900D03*
X0080378Y0107700D03*
X0069878Y0121000D03*
X0058178Y0182300D03*
X0362178Y0109300D03*
D38*
X0234678Y0156300D03*
X0174178Y0162800D03*
X0159678Y0182300D03*
X0217178Y0232800D03*
X0229178Y0232800D03*
X0240178Y0232800D03*
X0239178Y0243800D03*
X0310178Y0268300D03*
X0345178Y0280300D03*
X0358178Y0267800D03*
X0337678Y0243300D03*
X0338178Y0232300D03*
X0221178Y0073300D03*
X0231178Y0030800D03*
X0144678Y0029300D03*
X0144678Y0039300D03*
X0094178Y0063300D03*
X0097178Y0083800D03*
X0100178Y0113300D03*
X0059178Y0120800D03*
X0058178Y0110300D03*
X0039178Y0122300D03*
X0070178Y0159800D03*
X0052178Y0222300D03*
D39*
X0117678Y0160300D03*
X0106178Y0147300D03*
X0145178Y0150300D03*
X0153678Y0144300D03*
X0153678Y0130300D03*
X0154178Y0160300D03*
X0154178Y0094300D03*
X0053678Y0051800D03*
X0023678Y0071800D03*
X0044178Y0094800D03*
X0036178Y0102300D03*
X0259678Y0155800D03*
D40*
X0246678Y0196800D03*
D41*
X0117477Y0165532D03*
X0089918Y0137473D03*
X0074170Y0139442D03*
X0066296Y0139442D03*
X0064327Y0133536D03*
X0074170Y0129599D03*
X0074170Y0151253D03*
X0053678Y0088300D03*
X0083678Y0060800D03*
X0083678Y0053300D03*
X0109603Y0090229D03*
X0178678Y0025800D03*
X0173678Y0020800D03*
X0038737Y0243772D03*
X0034800Y0255583D03*
X0019052Y0263457D03*
X0034800Y0275269D03*
M02*
