G75*
%MOIN*%
%OFA0B0*%
%FSLAX25Y25*%
%IPPOS*%
%LPD*%
%AMOC8*
5,1,8,0,0,1.08239X$1,22.5*
%
%ADD10C,0.19600*%
%ADD11R,0.06600X0.06600*%
%ADD12C,0.06600*%
%ADD13C,0.05400*%
%ADD14R,0.05324X0.05324*%
%ADD15C,0.05324*%
%ADD16C,0.06112*%
%ADD17OC8,0.06600*%
%ADD18OC8,0.05324*%
%ADD19C,0.03750*%
%ADD20C,0.16400*%
%ADD21C,0.14400*%
%ADD22C,0.07200*%
%ADD23R,0.08868X0.08868*%
%ADD24OC8,0.08868*%
%ADD25OC8,0.03969*%
%ADD26OC8,0.04362*%
%ADD27C,0.04362*%
%ADD28R,0.04362X0.04362*%
%ADD29C,0.03500*%
%ADD30C,0.03300*%
D10*
X0026178Y0023300D03*
X0026178Y0210300D03*
X0374178Y0021300D03*
X0378678Y0296800D03*
D11*
X0290678Y0211800D03*
X0290678Y0201800D03*
X0290678Y0191800D03*
X0280178Y0133300D03*
X0188678Y0191800D03*
X0188678Y0201800D03*
X0188678Y0211800D03*
X0186178Y0133300D03*
X0069678Y0044800D03*
X0159678Y0034800D03*
X0159678Y0024800D03*
X0373178Y0089300D03*
D12*
X0350178Y0093300D03*
X0350178Y0083300D03*
X0350178Y0073300D03*
X0350178Y0063300D03*
X0350178Y0053300D03*
X0350178Y0043300D03*
X0350178Y0033300D03*
X0350178Y0023300D03*
X0280178Y0023300D03*
X0280178Y0033300D03*
X0280178Y0043300D03*
X0280178Y0053300D03*
X0280178Y0063300D03*
X0280178Y0073300D03*
X0280178Y0083300D03*
X0280178Y0093300D03*
X0280178Y0103300D03*
X0280178Y0113300D03*
X0280178Y0123300D03*
X0256178Y0123300D03*
X0256178Y0113300D03*
X0256178Y0103300D03*
X0256178Y0093300D03*
X0256178Y0083300D03*
X0256178Y0073300D03*
X0256178Y0063300D03*
X0256178Y0053300D03*
X0256178Y0043300D03*
X0256178Y0033300D03*
X0256178Y0023300D03*
X0186178Y0023300D03*
X0186178Y0033300D03*
X0186178Y0043300D03*
X0186178Y0053300D03*
X0186178Y0063300D03*
X0186178Y0073300D03*
X0186178Y0083300D03*
X0186178Y0093300D03*
X0186178Y0103300D03*
X0186178Y0113300D03*
X0186178Y0123300D03*
X0256178Y0133300D03*
X0350178Y0133300D03*
X0350178Y0123300D03*
X0350178Y0113300D03*
X0350178Y0103300D03*
D13*
X0170578Y0104300D02*
X0165778Y0104300D01*
X0165778Y0094300D02*
X0170578Y0094300D01*
X0170578Y0084300D02*
X0165778Y0084300D01*
X0165778Y0074300D02*
X0170578Y0074300D01*
X0170578Y0064300D02*
X0165778Y0064300D01*
X0140578Y0064300D02*
X0135778Y0064300D01*
X0135778Y0074300D02*
X0140578Y0074300D01*
X0140578Y0084300D02*
X0135778Y0084300D01*
X0135778Y0094300D02*
X0140578Y0094300D01*
X0140578Y0104300D02*
X0135778Y0104300D01*
X0135778Y0114300D02*
X0140578Y0114300D01*
X0140578Y0124300D02*
X0135778Y0124300D01*
X0135778Y0134300D02*
X0140578Y0134300D01*
X0140578Y0144300D02*
X0135778Y0144300D01*
X0135778Y0154300D02*
X0140578Y0154300D01*
X0165778Y0154300D02*
X0170578Y0154300D01*
X0170578Y0144300D02*
X0165778Y0144300D01*
X0165778Y0134300D02*
X0170578Y0134300D01*
X0170578Y0124300D02*
X0165778Y0124300D01*
X0165778Y0114300D02*
X0170578Y0114300D01*
D14*
X0159178Y0167300D03*
X0123178Y0167300D03*
X0073178Y0168300D03*
X0063178Y0201300D03*
X0063178Y0237300D03*
X0185178Y0295300D03*
X0302678Y0257400D03*
X0346678Y0257400D03*
X0374178Y0257800D03*
X0374178Y0272800D03*
X0374178Y0242800D03*
X0374178Y0228300D03*
X0373178Y0078300D03*
X0102178Y0063300D03*
X0065178Y0110300D03*
D15*
X0065178Y0100300D03*
X0065178Y0090300D03*
X0065178Y0080300D03*
X0115178Y0080300D03*
X0115178Y0090300D03*
X0115178Y0100300D03*
X0115178Y0110300D03*
D16*
X0040178Y0278583D03*
X0040178Y0296300D03*
D17*
X0198678Y0211800D03*
X0208678Y0211800D03*
X0218678Y0211800D03*
X0228678Y0211800D03*
X0238678Y0211800D03*
X0248678Y0211800D03*
X0258678Y0211800D03*
X0268678Y0211800D03*
X0278678Y0211800D03*
X0278678Y0201800D03*
X0268678Y0201800D03*
X0258678Y0201800D03*
X0248678Y0201800D03*
X0238678Y0201800D03*
X0228678Y0201800D03*
X0218678Y0201800D03*
X0208678Y0201800D03*
X0198678Y0201800D03*
X0198678Y0191800D03*
X0208678Y0191800D03*
X0218678Y0191800D03*
X0228678Y0191800D03*
X0238678Y0191800D03*
X0248678Y0191800D03*
X0258678Y0191800D03*
X0268678Y0191800D03*
X0278678Y0191800D03*
X0300678Y0191800D03*
X0310678Y0191800D03*
X0320678Y0191800D03*
X0330678Y0191800D03*
X0340678Y0191800D03*
X0350678Y0191800D03*
X0360678Y0191800D03*
X0370678Y0191800D03*
X0380678Y0191800D03*
X0373178Y0179300D03*
X0373178Y0169300D03*
X0373178Y0159300D03*
X0373178Y0149300D03*
X0373178Y0139300D03*
X0373178Y0129300D03*
X0373178Y0119300D03*
X0373178Y0109300D03*
X0373178Y0099300D03*
X0370678Y0201800D03*
X0380678Y0201800D03*
X0380678Y0211800D03*
X0370678Y0211800D03*
X0360678Y0211800D03*
X0350678Y0211800D03*
X0350678Y0201800D03*
X0360678Y0201800D03*
X0340678Y0201800D03*
X0330678Y0201800D03*
X0330678Y0211800D03*
X0340678Y0211800D03*
X0320678Y0211800D03*
X0310678Y0211800D03*
X0310678Y0201800D03*
X0320678Y0201800D03*
X0300678Y0201800D03*
X0300678Y0211800D03*
X0159678Y0044800D03*
X0149678Y0044800D03*
X0139678Y0044800D03*
X0139678Y0034800D03*
X0149678Y0034800D03*
X0149678Y0024800D03*
X0139678Y0024800D03*
X0129678Y0024800D03*
X0119678Y0024800D03*
X0119678Y0034800D03*
X0129678Y0034800D03*
X0129678Y0044800D03*
X0119678Y0044800D03*
X0109678Y0044800D03*
X0099678Y0044800D03*
X0099678Y0034800D03*
X0109678Y0034800D03*
X0109678Y0024800D03*
X0099678Y0024800D03*
X0089678Y0024800D03*
X0079678Y0024800D03*
X0079678Y0034800D03*
X0089678Y0034800D03*
X0089678Y0044800D03*
X0079678Y0044800D03*
X0069678Y0034800D03*
X0069678Y0024800D03*
D18*
X0112178Y0063300D03*
X0113178Y0167300D03*
X0149178Y0167300D03*
X0063178Y0168300D03*
X0063178Y0191300D03*
X0063178Y0227300D03*
X0185178Y0305300D03*
X0282678Y0257400D03*
X0292678Y0257400D03*
X0326678Y0257400D03*
X0336678Y0257400D03*
X0384178Y0257800D03*
X0384178Y0272800D03*
X0384178Y0242800D03*
X0384178Y0228300D03*
X0373178Y0068300D03*
X0373178Y0058300D03*
X0373178Y0048300D03*
X0373178Y0038300D03*
D19*
X0254965Y0280646D03*
X0254965Y0300331D03*
D20*
X0218078Y0261800D02*
X0202278Y0261800D01*
D21*
X0203278Y0285400D02*
X0217078Y0285400D01*
D22*
X0185178Y0283800D03*
X0185178Y0243800D03*
D23*
X0034678Y0164300D03*
X0034678Y0112800D03*
D24*
X0034678Y0132800D03*
X0034678Y0184300D03*
D25*
X0075678Y0295800D03*
X0169678Y0296300D03*
X0277178Y0241800D03*
X0277178Y0230300D03*
X0273978Y0219800D03*
X0287678Y0220300D03*
X0305678Y0176800D03*
X0324178Y0053300D03*
X0336678Y0053300D03*
D26*
X0270178Y0052800D03*
X0195178Y0123300D03*
X0221178Y0133300D03*
X0229178Y0139800D03*
X0229178Y0149300D03*
X0221678Y0163300D03*
X0243678Y0162800D03*
X0248178Y0165800D03*
X0243678Y0178800D03*
X0195178Y0165300D03*
X0228178Y0219800D03*
X0213178Y0230300D03*
X0258678Y0219800D03*
X0316178Y0176300D03*
X0335678Y0175800D03*
X0365678Y0233300D03*
X0315678Y0300300D03*
X0238678Y0274300D03*
X0111678Y0243300D03*
X0094678Y0251300D03*
X0047678Y0254800D03*
X0093178Y0300800D03*
X0100678Y0188300D03*
X0095678Y0180800D03*
X0115178Y0151700D03*
X0123778Y0119200D03*
X0127878Y0114800D03*
X0123178Y0105800D03*
X0117678Y0116800D03*
X0146778Y0101700D03*
X0135178Y0053300D03*
X0080078Y0087600D03*
X0069678Y0073100D03*
X0057678Y0086900D03*
X0080378Y0107700D03*
X0069878Y0121000D03*
X0058178Y0182300D03*
X0362178Y0109300D03*
D27*
X0234678Y0156300D03*
X0174178Y0162800D03*
X0159678Y0182300D03*
X0217178Y0232800D03*
X0229178Y0232800D03*
X0240178Y0232800D03*
X0239178Y0243800D03*
X0310178Y0268300D03*
X0345178Y0280300D03*
X0358178Y0267800D03*
X0337678Y0243300D03*
X0338178Y0232300D03*
X0221178Y0073300D03*
X0231178Y0030800D03*
X0144678Y0029300D03*
X0144678Y0039300D03*
X0094178Y0063300D03*
X0097178Y0083800D03*
X0100178Y0113300D03*
X0059178Y0120800D03*
X0058178Y0110300D03*
X0039178Y0122300D03*
X0070178Y0159800D03*
X0052178Y0222300D03*
D28*
X0117678Y0160300D03*
X0106178Y0147300D03*
X0145178Y0150300D03*
X0153678Y0144300D03*
X0153678Y0130300D03*
X0154178Y0160300D03*
X0154178Y0094300D03*
X0053678Y0051800D03*
X0023678Y0071800D03*
X0044178Y0094800D03*
X0036178Y0102300D03*
X0259678Y0155800D03*
D29*
X0246678Y0196800D03*
D30*
X0117477Y0165532D03*
X0089918Y0137473D03*
X0074170Y0139442D03*
X0066296Y0139442D03*
X0064327Y0133536D03*
X0074170Y0129599D03*
X0074170Y0151253D03*
X0053678Y0088300D03*
X0083678Y0060800D03*
X0083678Y0053300D03*
X0109603Y0090229D03*
X0178678Y0025800D03*
X0173678Y0020800D03*
X0038737Y0243772D03*
X0034800Y0255583D03*
X0019052Y0263457D03*
X0034800Y0275269D03*
M02*
