%
M48
M72
T01C0.01300
T02C0.01500
T03C0.01969
T04C0.02362
T05C0.03150
T06C0.03200
T07C0.04000
T08C0.04400
T09C0.05512
T10C0.09800
T11C0.11800
T12C0.19000
%
T01
X83678Y53300
X83678Y60800
X109603Y90229
X74170Y129599
X64327Y133536
X66296Y139442
X74170Y139442
X74170Y151253
X89918Y137473
X117477Y165532
X43678Y105800
X43678Y90800
X53678Y88300
X173678Y20800
X178678Y25800
X233678Y68300
X38737Y243772
X34800Y255583
X19052Y263457
X34800Y275269
T02
X246678Y196800
T03
X273978Y219800
X277178Y230300
X287678Y219800
X277178Y241800
X249678Y232800
X240178Y232800
X229178Y232800
X169678Y296300
X75678Y295800
X305678Y176800
X316678Y230800
X338178Y232300
X336678Y53300
X324178Y53300
T04
X270178Y52800
X195178Y123300
X221178Y133300
X229178Y139800
X229178Y149300
X221678Y163300
X243678Y162800
X248178Y165800
X259678Y155800
X243678Y178800
X195178Y149800
X153678Y144300
X153678Y130300
X127878Y114800
X123778Y119200
X117678Y116800
X123178Y105800
X146778Y101700
X154178Y94300
X135178Y53300
X80078Y87600
X69678Y73100
X54178Y80300
X57678Y86900
X44178Y94800
X36178Y102300
X27178Y102300
X43178Y80800
X80378Y107700
X69878Y121000
X100178Y113300
X106178Y147300
X115178Y151700
X126678Y157300
X117678Y160300
X95678Y180800
X100678Y188300
X58178Y182300
X52178Y222300
X47678Y254800
X94678Y251300
X111678Y243300
X93178Y300800
X213178Y235300
X213178Y230300
X228178Y219800
X258678Y219800
X316178Y176300
X335678Y175800
X365678Y233300
X338178Y266800
X338178Y279800
X315678Y300300
X238678Y274300
X154178Y160300
X362178Y109300
T05
X373178Y78300
X373178Y68300
X373178Y58300
X373178Y48300
X373178Y38300
X159178Y167300
X149178Y167300
X123178Y167300
X113178Y167300
X73178Y168300
X63178Y168300
X63178Y191300
X63178Y201300
X63178Y227300
X63178Y237300
X186178Y282800
X186178Y292800
X239178Y259300
X249178Y259300
X268178Y258300
X278178Y258300
X293178Y258300
X303178Y258300
X321178Y258300
X331178Y258300
X254965Y280646
X254965Y300331
X115178Y110300
X115178Y100300
X115178Y90300
X115178Y80300
X112178Y63300
X102178Y63300
X65178Y80300
X65178Y90300
X65178Y100300
X65178Y110300
T06
X138178Y114300
X138178Y104300
X138178Y94300
X138178Y84300
X138178Y74300
X138178Y64300
X168178Y64300
X168178Y74300
X168178Y84300
X168178Y94300
X168178Y104300
X168178Y114300
X168178Y124300
X168178Y134300
X168178Y144300
X168178Y154300
X138178Y154300
X138178Y144300
X138178Y134300
X138178Y124300
T07
X186178Y123300
X186178Y113300
X186178Y103300
X186178Y93300
X186178Y83300
X186178Y73300
X186178Y63300
X186178Y53300
X186178Y43300
X186178Y33300
X186178Y23300
X159678Y24800
X159678Y34800
X159678Y44800
X149678Y44800
X139678Y44800
X139678Y34800
X149678Y34800
X149678Y24800
X139678Y24800
X129678Y24800
X119678Y24800
X119678Y34800
X129678Y34800
X129678Y44800
X119678Y44800
X109678Y44800
X99678Y44800
X99678Y34800
X109678Y34800
X109678Y24800
X99678Y24800
X89678Y24800
X79678Y24800
X79678Y34800
X89678Y34800
X89678Y44800
X79678Y44800
X69678Y44800
X69678Y34800
X69678Y24800
X186178Y133300
X188678Y191800
X198678Y191800
X208678Y191800
X218678Y191800
X228678Y191800
X238678Y191800
X248678Y191800
X258678Y191800
X268678Y191800
X278678Y191800
X290678Y191800
X300678Y191800
X310678Y191800
X320678Y191800
X330678Y191800
X340678Y191800
X350678Y191800
X360678Y191800
X370678Y191800
X380678Y191800
X373178Y179300
X373178Y169300
X373178Y159300
X373178Y149300
X373178Y139300
X373178Y129300
X373178Y119300
X373178Y109300
X373178Y99300
X373178Y89300
X350178Y93300
X350178Y83300
X350178Y73300
X350178Y63300
X350178Y53300
X350178Y43300
X350178Y33300
X350178Y23300
X280178Y23300
X280178Y33300
X280178Y43300
X280178Y53300
X280178Y63300
X280178Y73300
X280178Y83300
X280178Y93300
X280178Y103300
X280178Y113300
X280178Y123300
X280178Y133300
X256178Y133300
X256178Y123300
X256178Y113300
X256178Y103300
X256178Y93300
X256178Y83300
X256178Y73300
X256178Y63300
X256178Y53300
X256178Y43300
X256178Y33300
X256178Y23300
X350178Y103300
X350178Y113300
X350178Y123300
X350178Y133300
X350678Y201800
X360678Y201800
X370678Y201800
X380678Y201800
X380678Y211800
X370678Y211800
X360678Y211800
X350678Y211800
X340678Y211800
X330678Y211800
X330678Y201800
X340678Y201800
X320678Y201800
X310678Y201800
X310678Y211800
X320678Y211800
X300678Y211800
X290678Y211800
X290678Y201800
X300678Y201800
X278678Y201800
X278678Y211800
X268678Y211800
X258678Y211800
X258678Y201800
X268678Y201800
X248678Y201800
X238678Y201800
X238678Y211800
X248678Y211800
X228678Y211800
X218678Y211800
X218678Y201800
X228678Y201800
X208678Y201800
X198678Y201800
X198678Y211800
X208678Y211800
X188678Y211800
X188678Y201800
T08
X378178Y233800
X378178Y273800
T09
X40178Y278583
X40178Y296300
T10
X210178Y285400
T11
X210178Y261800
T12
X26178Y23300
X26178Y210300
X374178Y21300
X378678Y296800
M30
