G75*
%MOIN*%
%OFA0B0*%
%FSLAX25Y25*%
%IPPOS*%
%LPD*%
%AMOC8*
5,1,8,0,0,1.08239X$1,22.5*
%
%ADD10C,0.00600*%
%ADD11C,0.00300*%
%ADD12C,0.00400*%
%ADD13C,0.00100*%
%ADD14C,0.00800*%
%ADD15C,0.00200*%
%ADD16C,0.00500*%
%ADD17C,0.01000*%
%ADD18C,0.00197*%
%ADD19R,0.10000X0.02000*%
%ADD20R,0.03000X0.07500*%
D10*
X0141678Y0059300D02*
X0141678Y0159300D01*
X0149178Y0159300D01*
X0149180Y0159174D01*
X0149186Y0159049D01*
X0149196Y0158924D01*
X0149210Y0158799D01*
X0149227Y0158674D01*
X0149249Y0158550D01*
X0149274Y0158427D01*
X0149304Y0158305D01*
X0149337Y0158184D01*
X0149374Y0158064D01*
X0149414Y0157945D01*
X0149459Y0157828D01*
X0149507Y0157711D01*
X0149559Y0157597D01*
X0149614Y0157484D01*
X0149673Y0157373D01*
X0149735Y0157264D01*
X0149801Y0157157D01*
X0149870Y0157052D01*
X0149942Y0156949D01*
X0150017Y0156848D01*
X0150096Y0156750D01*
X0150178Y0156655D01*
X0150262Y0156562D01*
X0150350Y0156472D01*
X0150440Y0156384D01*
X0150533Y0156300D01*
X0150628Y0156218D01*
X0150726Y0156139D01*
X0150827Y0156064D01*
X0150930Y0155992D01*
X0151035Y0155923D01*
X0151142Y0155857D01*
X0151251Y0155795D01*
X0151362Y0155736D01*
X0151475Y0155681D01*
X0151589Y0155629D01*
X0151706Y0155581D01*
X0151823Y0155536D01*
X0151942Y0155496D01*
X0152062Y0155459D01*
X0152183Y0155426D01*
X0152305Y0155396D01*
X0152428Y0155371D01*
X0152552Y0155349D01*
X0152677Y0155332D01*
X0152802Y0155318D01*
X0152927Y0155308D01*
X0153052Y0155302D01*
X0153178Y0155300D01*
X0153304Y0155302D01*
X0153429Y0155308D01*
X0153554Y0155318D01*
X0153679Y0155332D01*
X0153804Y0155349D01*
X0153928Y0155371D01*
X0154051Y0155396D01*
X0154173Y0155426D01*
X0154294Y0155459D01*
X0154414Y0155496D01*
X0154533Y0155536D01*
X0154650Y0155581D01*
X0154767Y0155629D01*
X0154881Y0155681D01*
X0154994Y0155736D01*
X0155105Y0155795D01*
X0155214Y0155857D01*
X0155321Y0155923D01*
X0155426Y0155992D01*
X0155529Y0156064D01*
X0155630Y0156139D01*
X0155728Y0156218D01*
X0155823Y0156300D01*
X0155916Y0156384D01*
X0156006Y0156472D01*
X0156094Y0156562D01*
X0156178Y0156655D01*
X0156260Y0156750D01*
X0156339Y0156848D01*
X0156414Y0156949D01*
X0156486Y0157052D01*
X0156555Y0157157D01*
X0156621Y0157264D01*
X0156683Y0157373D01*
X0156742Y0157484D01*
X0156797Y0157597D01*
X0156849Y0157711D01*
X0156897Y0157828D01*
X0156942Y0157945D01*
X0156982Y0158064D01*
X0157019Y0158184D01*
X0157052Y0158305D01*
X0157082Y0158427D01*
X0157107Y0158550D01*
X0157129Y0158674D01*
X0157146Y0158799D01*
X0157160Y0158924D01*
X0157170Y0159049D01*
X0157176Y0159174D01*
X0157178Y0159300D01*
X0164678Y0159300D01*
X0164678Y0059300D01*
X0141678Y0059300D01*
X0187268Y0229800D02*
X0259678Y0229800D01*
X0291678Y0229800D01*
X0291678Y0248264D01*
X0291678Y0229800D02*
X0340607Y0229800D01*
X0340672Y0229802D01*
X0340736Y0229808D01*
X0340800Y0229818D01*
X0340863Y0229831D01*
X0340926Y0229848D01*
X0340987Y0229870D01*
X0341047Y0229894D01*
X0341105Y0229923D01*
X0341161Y0229954D01*
X0341215Y0229990D01*
X0341268Y0230028D01*
X0341317Y0230069D01*
X0341364Y0230114D01*
X0341409Y0230161D01*
X0341450Y0230210D01*
X0341488Y0230263D01*
X0341524Y0230317D01*
X0341555Y0230373D01*
X0341584Y0230431D01*
X0341608Y0230491D01*
X0341630Y0230552D01*
X0341647Y0230615D01*
X0341660Y0230678D01*
X0341670Y0230742D01*
X0341676Y0230806D01*
X0341678Y0230871D01*
X0341678Y0249300D01*
X0342178Y0248800D02*
X0259678Y0248800D01*
X0259678Y0248264D01*
X0259678Y0229800D01*
X0259678Y0248264D02*
X0259676Y0248339D01*
X0259671Y0248415D01*
X0259661Y0248489D01*
X0259648Y0248564D01*
X0259632Y0248637D01*
X0259612Y0248710D01*
X0259588Y0248781D01*
X0259561Y0248852D01*
X0259531Y0248921D01*
X0259497Y0248988D01*
X0259459Y0249054D01*
X0259419Y0249117D01*
X0259376Y0249179D01*
X0259329Y0249238D01*
X0259280Y0249296D01*
X0259228Y0249350D01*
X0259174Y0249402D01*
X0259116Y0249451D01*
X0259057Y0249498D01*
X0258995Y0249541D01*
X0258932Y0249581D01*
X0258866Y0249619D01*
X0258799Y0249653D01*
X0258730Y0249683D01*
X0258659Y0249710D01*
X0258588Y0249734D01*
X0258515Y0249754D01*
X0258442Y0249770D01*
X0258367Y0249783D01*
X0258293Y0249793D01*
X0258217Y0249798D01*
X0258142Y0249800D01*
X0184178Y0249800D01*
X0184678Y0249300D02*
X0184678Y0231390D01*
X0184701Y0231302D01*
X0184728Y0231215D01*
X0184758Y0231129D01*
X0184793Y0231044D01*
X0184830Y0230961D01*
X0184871Y0230880D01*
X0184916Y0230800D01*
X0184964Y0230722D01*
X0185015Y0230647D01*
X0185069Y0230574D01*
X0185127Y0230503D01*
X0185187Y0230434D01*
X0185250Y0230368D01*
X0185316Y0230305D01*
X0185385Y0230245D01*
X0185456Y0230188D01*
X0185529Y0230134D01*
X0185605Y0230083D01*
X0185683Y0230035D01*
X0185762Y0229991D01*
X0185844Y0229950D01*
X0185927Y0229912D01*
X0186012Y0229878D01*
X0186098Y0229848D01*
X0186185Y0229822D01*
X0186273Y0229799D01*
X0186363Y0229780D01*
X0186453Y0229764D01*
X0186543Y0229753D01*
X0186634Y0229745D01*
X0186725Y0229741D01*
X0186816Y0229742D01*
X0186908Y0229746D01*
X0186998Y0229753D01*
X0187089Y0229765D01*
X0187179Y0229781D01*
X0187268Y0229800D01*
X0282178Y0288890D02*
X0282178Y0305210D01*
X0282180Y0305359D01*
X0282186Y0305508D01*
X0282196Y0305656D01*
X0282210Y0305804D01*
X0282227Y0305952D01*
X0282249Y0306099D01*
X0282275Y0306246D01*
X0282304Y0306392D01*
X0282338Y0306537D01*
X0282375Y0306681D01*
X0282416Y0306824D01*
X0282461Y0306966D01*
X0282509Y0307106D01*
X0282562Y0307246D01*
X0282618Y0307384D01*
X0282678Y0307520D01*
X0282741Y0307655D01*
X0282808Y0307788D01*
X0282878Y0307919D01*
X0282952Y0308048D01*
X0283029Y0308175D01*
X0283110Y0308300D01*
X0283194Y0308423D01*
X0283281Y0308544D01*
X0283371Y0308662D01*
X0283465Y0308778D01*
X0283561Y0308891D01*
X0283661Y0309002D01*
X0283763Y0309110D01*
X0283868Y0309215D01*
X0283976Y0309317D01*
X0284087Y0309417D01*
X0284200Y0309513D01*
X0284316Y0309607D01*
X0284434Y0309697D01*
X0284555Y0309784D01*
X0284678Y0309868D01*
X0284803Y0309949D01*
X0284930Y0310026D01*
X0285059Y0310100D01*
X0285190Y0310170D01*
X0285323Y0310237D01*
X0285458Y0310300D01*
X0285594Y0310360D01*
X0285732Y0310416D01*
X0285872Y0310469D01*
X0286012Y0310517D01*
X0286154Y0310562D01*
X0286297Y0310603D01*
X0286441Y0310640D01*
X0286586Y0310674D01*
X0286732Y0310703D01*
X0286879Y0310729D01*
X0287026Y0310751D01*
X0287174Y0310768D01*
X0287322Y0310782D01*
X0287470Y0310792D01*
X0287619Y0310798D01*
X0287768Y0310800D01*
X0324678Y0310800D01*
X0357607Y0310800D01*
X0357778Y0310798D01*
X0357949Y0310792D01*
X0358119Y0310781D01*
X0358289Y0310767D01*
X0358459Y0310748D01*
X0358629Y0310726D01*
X0358797Y0310699D01*
X0358966Y0310668D01*
X0359133Y0310633D01*
X0359299Y0310595D01*
X0359465Y0310552D01*
X0359629Y0310505D01*
X0359792Y0310454D01*
X0359954Y0310399D01*
X0360114Y0310340D01*
X0360273Y0310278D01*
X0360431Y0310212D01*
X0360587Y0310142D01*
X0360741Y0310068D01*
X0360893Y0309990D01*
X0361043Y0309909D01*
X0361192Y0309824D01*
X0361338Y0309736D01*
X0361482Y0309644D01*
X0361624Y0309548D01*
X0361763Y0309450D01*
X0361900Y0309347D01*
X0362035Y0309242D01*
X0362167Y0309133D01*
X0362296Y0309022D01*
X0362422Y0308907D01*
X0362546Y0308789D01*
X0362667Y0308668D01*
X0362785Y0308544D01*
X0362900Y0308418D01*
X0363011Y0308289D01*
X0363120Y0308157D01*
X0363225Y0308022D01*
X0363328Y0307885D01*
X0363426Y0307746D01*
X0363522Y0307604D01*
X0363614Y0307460D01*
X0363702Y0307314D01*
X0363787Y0307165D01*
X0363868Y0307015D01*
X0363946Y0306863D01*
X0364020Y0306709D01*
X0364090Y0306553D01*
X0364156Y0306395D01*
X0364218Y0306236D01*
X0364277Y0306076D01*
X0364332Y0305914D01*
X0364383Y0305751D01*
X0364430Y0305587D01*
X0364473Y0305421D01*
X0364511Y0305255D01*
X0364546Y0305088D01*
X0364577Y0304919D01*
X0364604Y0304751D01*
X0364626Y0304581D01*
X0364645Y0304411D01*
X0364659Y0304241D01*
X0364670Y0304071D01*
X0364676Y0303900D01*
X0364678Y0303729D01*
X0364678Y0290371D01*
X0364676Y0290200D01*
X0364670Y0290029D01*
X0364659Y0289859D01*
X0364645Y0289689D01*
X0364626Y0289519D01*
X0364604Y0289349D01*
X0364577Y0289181D01*
X0364546Y0289012D01*
X0364511Y0288845D01*
X0364473Y0288679D01*
X0364430Y0288513D01*
X0364383Y0288349D01*
X0364332Y0288186D01*
X0364277Y0288024D01*
X0364218Y0287864D01*
X0364156Y0287705D01*
X0364090Y0287547D01*
X0364020Y0287391D01*
X0363946Y0287237D01*
X0363868Y0287085D01*
X0363787Y0286935D01*
X0363702Y0286786D01*
X0363614Y0286640D01*
X0363522Y0286496D01*
X0363426Y0286354D01*
X0363328Y0286215D01*
X0363225Y0286078D01*
X0363120Y0285943D01*
X0363011Y0285811D01*
X0362900Y0285682D01*
X0362785Y0285556D01*
X0362667Y0285432D01*
X0362546Y0285311D01*
X0362422Y0285193D01*
X0362296Y0285078D01*
X0362167Y0284967D01*
X0362035Y0284858D01*
X0361900Y0284753D01*
X0361763Y0284650D01*
X0361624Y0284552D01*
X0361482Y0284456D01*
X0361338Y0284364D01*
X0361192Y0284276D01*
X0361043Y0284191D01*
X0360893Y0284110D01*
X0360741Y0284032D01*
X0360587Y0283958D01*
X0360431Y0283888D01*
X0360273Y0283822D01*
X0360114Y0283760D01*
X0359954Y0283701D01*
X0359792Y0283646D01*
X0359629Y0283595D01*
X0359465Y0283548D01*
X0359299Y0283505D01*
X0359133Y0283467D01*
X0358966Y0283432D01*
X0358797Y0283401D01*
X0358629Y0283374D01*
X0358459Y0283352D01*
X0358289Y0283333D01*
X0358119Y0283319D01*
X0357949Y0283308D01*
X0357778Y0283302D01*
X0357607Y0283300D01*
X0324678Y0283300D01*
X0324678Y0310800D01*
X0324678Y0283300D02*
X0287768Y0283300D01*
X0287619Y0283302D01*
X0287470Y0283308D01*
X0287322Y0283318D01*
X0287174Y0283332D01*
X0287026Y0283349D01*
X0286879Y0283371D01*
X0286732Y0283397D01*
X0286586Y0283426D01*
X0286441Y0283460D01*
X0286297Y0283497D01*
X0286154Y0283538D01*
X0286012Y0283583D01*
X0285872Y0283631D01*
X0285732Y0283684D01*
X0285594Y0283740D01*
X0285458Y0283800D01*
X0285323Y0283863D01*
X0285190Y0283930D01*
X0285059Y0284000D01*
X0284930Y0284074D01*
X0284803Y0284151D01*
X0284678Y0284232D01*
X0284555Y0284316D01*
X0284434Y0284403D01*
X0284316Y0284493D01*
X0284200Y0284587D01*
X0284087Y0284683D01*
X0283976Y0284783D01*
X0283868Y0284885D01*
X0283763Y0284990D01*
X0283661Y0285098D01*
X0283561Y0285209D01*
X0283465Y0285322D01*
X0283371Y0285438D01*
X0283281Y0285556D01*
X0283194Y0285677D01*
X0283110Y0285800D01*
X0283029Y0285925D01*
X0282952Y0286052D01*
X0282878Y0286181D01*
X0282808Y0286312D01*
X0282741Y0286445D01*
X0282678Y0286580D01*
X0282618Y0286716D01*
X0282562Y0286854D01*
X0282509Y0286994D01*
X0282461Y0287134D01*
X0282416Y0287276D01*
X0282375Y0287419D01*
X0282338Y0287563D01*
X0282304Y0287708D01*
X0282275Y0287854D01*
X0282249Y0288001D01*
X0282227Y0288148D01*
X0282210Y0288296D01*
X0282196Y0288444D01*
X0282186Y0288592D01*
X0282180Y0288741D01*
X0282178Y0288890D01*
X0373178Y0261800D02*
X0373178Y0245800D01*
X0383178Y0245800D01*
X0383178Y0261800D01*
X0373178Y0261800D01*
X0378178Y0256300D02*
X0378178Y0253800D01*
X0375678Y0253800D01*
X0378178Y0253800D02*
X0380678Y0253800D01*
X0378178Y0253800D02*
X0380678Y0249800D01*
X0375678Y0249800D01*
X0378178Y0253800D01*
X0378178Y0247800D01*
D11*
X0332737Y0245885D02*
X0331286Y0245885D01*
X0330802Y0245401D01*
X0331286Y0244917D01*
X0332253Y0244917D01*
X0332737Y0244434D01*
X0332253Y0243950D01*
X0330802Y0243950D01*
X0329790Y0244434D02*
X0329790Y0246369D01*
X0329307Y0246852D01*
X0327855Y0246852D01*
X0327855Y0243950D01*
X0329307Y0243950D01*
X0329790Y0244434D01*
X0326844Y0243950D02*
X0324909Y0243950D01*
X0324909Y0246852D01*
X0326844Y0246852D01*
X0325876Y0245401D02*
X0324909Y0245401D01*
X0323897Y0243950D02*
X0321962Y0243950D01*
X0321962Y0246852D01*
X0318004Y0243950D02*
X0316069Y0243950D01*
X0317037Y0243950D02*
X0317037Y0246852D01*
X0316069Y0245885D01*
X0312111Y0245401D02*
X0312111Y0244434D01*
X0311628Y0243950D01*
X0310176Y0243950D01*
X0310176Y0242983D02*
X0310176Y0245885D01*
X0311628Y0245885D01*
X0312111Y0245401D01*
X0309165Y0245401D02*
X0308681Y0245885D01*
X0307714Y0245885D01*
X0307230Y0245401D01*
X0307230Y0244434D01*
X0307714Y0243950D01*
X0308681Y0243950D01*
X0309165Y0244434D01*
X0309165Y0245401D01*
X0306226Y0245885D02*
X0305742Y0245885D01*
X0304774Y0244917D01*
X0304774Y0243950D02*
X0304774Y0245885D01*
X0303763Y0246369D02*
X0303763Y0245401D01*
X0303279Y0244917D01*
X0301828Y0244917D01*
X0301828Y0243950D02*
X0301828Y0246852D01*
X0303279Y0246852D01*
X0303763Y0246369D01*
X0296719Y0245885D02*
X0295268Y0245885D01*
X0294784Y0245401D01*
X0295268Y0244917D01*
X0296235Y0244917D01*
X0296719Y0244434D01*
X0296235Y0243950D01*
X0294784Y0243950D01*
X0293787Y0243950D02*
X0292820Y0243950D01*
X0293304Y0243950D02*
X0293304Y0246852D01*
X0292820Y0246852D01*
X0291808Y0245401D02*
X0291808Y0243950D01*
X0290357Y0243950D01*
X0289873Y0244434D01*
X0290357Y0244917D01*
X0291808Y0244917D01*
X0291808Y0245401D02*
X0291324Y0245885D01*
X0290357Y0245885D01*
X0288862Y0245401D02*
X0288862Y0243950D01*
X0288862Y0245401D02*
X0288378Y0245885D01*
X0286927Y0245885D01*
X0286927Y0243950D01*
X0285915Y0243950D02*
X0284464Y0243950D01*
X0283980Y0244434D01*
X0283980Y0245401D01*
X0284464Y0245885D01*
X0285915Y0245885D01*
X0285915Y0243466D01*
X0285431Y0242983D01*
X0284948Y0242983D01*
X0282983Y0243950D02*
X0282016Y0243950D01*
X0282500Y0243950D02*
X0282500Y0245885D01*
X0282016Y0245885D01*
X0282500Y0246852D02*
X0282500Y0247336D01*
X0281004Y0246369D02*
X0280521Y0246852D01*
X0279553Y0246852D01*
X0279069Y0246369D01*
X0279069Y0245885D01*
X0279553Y0245401D01*
X0280521Y0245401D01*
X0281004Y0244917D01*
X0281004Y0244434D01*
X0280521Y0243950D01*
X0279553Y0243950D01*
X0279069Y0244434D01*
X0275111Y0244434D02*
X0274628Y0243950D01*
X0273176Y0243950D01*
X0273176Y0242983D02*
X0273176Y0245885D01*
X0274628Y0245885D01*
X0275111Y0245401D01*
X0275111Y0244434D01*
X0272165Y0244434D02*
X0272165Y0245401D01*
X0271681Y0245885D01*
X0270714Y0245885D01*
X0270230Y0245401D01*
X0270230Y0244434D01*
X0270714Y0243950D01*
X0271681Y0243950D01*
X0272165Y0244434D01*
X0269226Y0245885D02*
X0268742Y0245885D01*
X0267774Y0244917D01*
X0267774Y0243950D02*
X0267774Y0245885D01*
X0266763Y0246369D02*
X0266763Y0245401D01*
X0266279Y0244917D01*
X0264828Y0244917D01*
X0264828Y0243950D02*
X0264828Y0246852D01*
X0266279Y0246852D01*
X0266763Y0246369D01*
X0238237Y0246885D02*
X0236786Y0246885D01*
X0236302Y0246401D01*
X0236786Y0245917D01*
X0237753Y0245917D01*
X0238237Y0245434D01*
X0237753Y0244950D01*
X0236302Y0244950D01*
X0235290Y0245434D02*
X0235290Y0247369D01*
X0234807Y0247852D01*
X0233355Y0247852D01*
X0233355Y0244950D01*
X0234807Y0244950D01*
X0235290Y0245434D01*
X0232344Y0244950D02*
X0230409Y0244950D01*
X0230409Y0247852D01*
X0232344Y0247852D01*
X0231376Y0246401D02*
X0230409Y0246401D01*
X0229397Y0244950D02*
X0227462Y0244950D01*
X0227462Y0247852D01*
X0223504Y0247369D02*
X0223504Y0246885D01*
X0221569Y0244950D01*
X0223504Y0244950D01*
X0223504Y0247369D02*
X0223021Y0247852D01*
X0222053Y0247852D01*
X0221569Y0247369D01*
X0217611Y0246401D02*
X0217611Y0245434D01*
X0217128Y0244950D01*
X0215676Y0244950D01*
X0215676Y0243983D02*
X0215676Y0246885D01*
X0217128Y0246885D01*
X0217611Y0246401D01*
X0214665Y0246401D02*
X0214181Y0246885D01*
X0213214Y0246885D01*
X0212730Y0246401D01*
X0212730Y0245434D01*
X0213214Y0244950D01*
X0214181Y0244950D01*
X0214665Y0245434D01*
X0214665Y0246401D01*
X0211726Y0246885D02*
X0211242Y0246885D01*
X0210274Y0245917D01*
X0210274Y0244950D02*
X0210274Y0246885D01*
X0209263Y0247369D02*
X0209263Y0246401D01*
X0208779Y0245917D01*
X0207328Y0245917D01*
X0207328Y0244950D02*
X0207328Y0247852D01*
X0208779Y0247852D01*
X0209263Y0247369D01*
X0213739Y0271513D02*
X0213739Y0275153D01*
X0215559Y0275153D01*
X0216166Y0274546D01*
X0216166Y0273333D01*
X0215559Y0272726D01*
X0213739Y0272726D01*
X0217364Y0273333D02*
X0217364Y0272120D01*
X0217971Y0271513D01*
X0219184Y0271513D01*
X0219791Y0272120D01*
X0219791Y0272726D01*
X0219184Y0273333D01*
X0217364Y0273333D01*
X0218577Y0274546D01*
X0219791Y0275153D01*
X0219365Y0277025D02*
X0218151Y0278238D01*
X0218151Y0280665D01*
X0220578Y0280665D02*
X0220578Y0278238D01*
X0219365Y0277025D01*
X0216953Y0276418D02*
X0214526Y0276418D01*
X0213328Y0277025D02*
X0212115Y0278238D01*
X0212721Y0278238D02*
X0210901Y0278238D01*
X0210901Y0277025D02*
X0210901Y0280665D01*
X0212721Y0280665D01*
X0213328Y0280058D01*
X0213328Y0278845D01*
X0212721Y0278238D01*
X0209703Y0277631D02*
X0209703Y0280058D01*
X0209096Y0280665D01*
X0207883Y0280665D01*
X0207276Y0280058D01*
X0207276Y0277631D01*
X0207883Y0277025D01*
X0209096Y0277025D01*
X0209703Y0277631D01*
X0206078Y0280665D02*
X0203651Y0280665D01*
X0204864Y0280665D02*
X0204864Y0277025D01*
X0202453Y0277631D02*
X0202453Y0280058D01*
X0201846Y0280665D01*
X0200632Y0280665D01*
X0200026Y0280058D01*
X0200026Y0277631D01*
X0200632Y0277025D01*
X0201846Y0277025D01*
X0202453Y0277631D01*
X0198827Y0277025D02*
X0198827Y0280665D01*
X0197614Y0279452D01*
X0196401Y0280665D01*
X0196401Y0277025D01*
X0175676Y0200919D02*
X0175676Y0198450D01*
X0174442Y0199684D02*
X0176911Y0199684D01*
D12*
X0173374Y0190569D02*
X0174141Y0189802D01*
X0172607Y0188267D01*
X0173374Y0187500D01*
X0206378Y0178104D02*
X0206378Y0173500D01*
X0206378Y0175035D02*
X0208680Y0175035D01*
X0209447Y0175802D01*
X0209447Y0177337D01*
X0208680Y0178104D01*
X0206378Y0178104D01*
X0210982Y0176569D02*
X0210982Y0173500D01*
X0210982Y0175035D02*
X0212516Y0176569D01*
X0213284Y0176569D01*
X0214818Y0175802D02*
X0214818Y0174267D01*
X0215586Y0173500D01*
X0217120Y0173500D01*
X0217888Y0174267D01*
X0217888Y0175802D01*
X0217120Y0176569D01*
X0215586Y0176569D01*
X0214818Y0175802D01*
X0219422Y0176569D02*
X0221724Y0176569D01*
X0222492Y0175802D01*
X0222492Y0174267D01*
X0221724Y0173500D01*
X0219422Y0173500D01*
X0219422Y0171965D02*
X0219422Y0176569D01*
X0224026Y0175802D02*
X0227096Y0175802D01*
X0228630Y0178104D02*
X0230165Y0176569D01*
X0231699Y0178104D01*
X0231699Y0173500D01*
X0233234Y0173500D02*
X0234769Y0173500D01*
X0234001Y0173500D02*
X0234001Y0176569D01*
X0233234Y0176569D01*
X0234001Y0178104D02*
X0234001Y0178871D01*
X0236303Y0176569D02*
X0238605Y0176569D01*
X0239373Y0175802D01*
X0239373Y0173500D01*
X0240907Y0173500D02*
X0242442Y0173500D01*
X0241675Y0173500D02*
X0241675Y0176569D01*
X0240907Y0176569D01*
X0241675Y0178104D02*
X0241675Y0178871D01*
X0236303Y0176569D02*
X0236303Y0173500D01*
X0228630Y0173500D02*
X0228630Y0178104D01*
X0214051Y0167337D02*
X0213284Y0168104D01*
X0211749Y0168104D01*
X0210982Y0167337D01*
X0209447Y0167337D02*
X0209447Y0165802D01*
X0208680Y0165035D01*
X0206378Y0165035D01*
X0206378Y0163500D02*
X0206378Y0168104D01*
X0208680Y0168104D01*
X0209447Y0167337D01*
X0210982Y0163500D02*
X0214051Y0166569D01*
X0214051Y0167337D01*
X0214051Y0163500D02*
X0210982Y0163500D01*
X0193655Y0143104D02*
X0192120Y0142337D01*
X0190586Y0140802D01*
X0192888Y0140802D01*
X0193655Y0140035D01*
X0193655Y0139267D01*
X0192888Y0138500D01*
X0191353Y0138500D01*
X0190586Y0139267D01*
X0190586Y0140802D01*
X0189051Y0138500D02*
X0185982Y0138500D01*
X0187516Y0138500D02*
X0187516Y0143104D01*
X0185982Y0141569D01*
X0184447Y0140802D02*
X0183680Y0140035D01*
X0181378Y0140035D01*
X0181378Y0138500D02*
X0181378Y0143104D01*
X0183680Y0143104D01*
X0184447Y0142337D01*
X0184447Y0140802D01*
X0137259Y0189500D02*
X0134190Y0189500D01*
X0134190Y0194104D01*
X0137259Y0194104D01*
X0135724Y0191802D02*
X0134190Y0191802D01*
X0132655Y0194104D02*
X0129586Y0194104D01*
X0129586Y0189500D01*
X0132655Y0189500D01*
X0131120Y0191802D02*
X0129586Y0191802D01*
X0128051Y0192569D02*
X0127284Y0191802D01*
X0124982Y0191802D01*
X0127284Y0191802D02*
X0128051Y0191035D01*
X0128051Y0190267D01*
X0127284Y0189500D01*
X0124982Y0189500D01*
X0124982Y0194104D01*
X0127284Y0194104D01*
X0128051Y0193337D01*
X0128051Y0192569D01*
X0123447Y0194104D02*
X0120378Y0189500D01*
X0123447Y0189500D02*
X0120378Y0194104D01*
X0245437Y0277500D02*
X0245437Y0279802D01*
X0246204Y0280569D01*
X0247739Y0280569D01*
X0248506Y0279802D01*
X0248506Y0277500D01*
X0250041Y0277500D02*
X0245437Y0277500D01*
X0246204Y0282104D02*
X0245437Y0282871D01*
X0245437Y0284406D01*
X0246204Y0285173D01*
X0246972Y0285173D01*
X0247739Y0284406D01*
X0248506Y0285173D01*
X0249274Y0285173D01*
X0250041Y0284406D01*
X0250041Y0282871D01*
X0249274Y0282104D01*
X0247739Y0283639D02*
X0247739Y0284406D01*
X0263311Y0284406D02*
X0264078Y0285173D01*
X0267148Y0285173D01*
X0267915Y0284406D01*
X0267915Y0282871D01*
X0267148Y0282104D01*
X0264078Y0282104D01*
X0263311Y0282871D01*
X0263311Y0284406D01*
X0263311Y0286708D02*
X0267915Y0289777D01*
X0263311Y0289777D01*
X0263311Y0291312D02*
X0263311Y0294381D01*
X0263311Y0292846D02*
X0267915Y0292846D01*
X0267915Y0295916D02*
X0263311Y0295916D01*
X0263311Y0298218D01*
X0264078Y0298985D01*
X0265613Y0298985D01*
X0266380Y0298218D01*
X0266380Y0295916D01*
X0266380Y0297450D02*
X0267915Y0298985D01*
X0267148Y0300520D02*
X0264078Y0300520D01*
X0263311Y0301287D01*
X0263311Y0302822D01*
X0264078Y0303589D01*
X0267148Y0303589D01*
X0267915Y0302822D01*
X0267915Y0301287D01*
X0267148Y0300520D01*
X0267915Y0305124D02*
X0263311Y0305124D01*
X0267915Y0305124D02*
X0267915Y0308193D01*
X0268682Y0309727D02*
X0268682Y0312797D01*
X0266380Y0314331D02*
X0267915Y0315866D01*
X0266380Y0317401D01*
X0263311Y0317401D01*
X0263311Y0314331D02*
X0266380Y0314331D01*
X0287378Y0308104D02*
X0290447Y0303500D01*
X0291982Y0303500D02*
X0294284Y0303500D01*
X0295051Y0304267D01*
X0295051Y0305035D01*
X0294284Y0305802D01*
X0291982Y0305802D01*
X0294284Y0305802D02*
X0295051Y0306569D01*
X0295051Y0307337D01*
X0294284Y0308104D01*
X0291982Y0308104D01*
X0291982Y0303500D01*
X0296586Y0303500D02*
X0296586Y0308104D01*
X0299655Y0308104D01*
X0301190Y0308104D02*
X0301190Y0303500D01*
X0304259Y0303500D01*
X0302724Y0305802D02*
X0301190Y0305802D01*
X0301190Y0308104D02*
X0304259Y0308104D01*
X0299655Y0303500D02*
X0296586Y0303500D01*
X0296586Y0305802D02*
X0298120Y0305802D01*
X0290447Y0308104D02*
X0287378Y0303500D01*
X0267915Y0286708D02*
X0263311Y0286708D01*
X0264078Y0280569D02*
X0263311Y0279802D01*
X0263311Y0278267D01*
X0264078Y0277500D01*
X0267148Y0277500D01*
X0267915Y0278267D01*
X0267915Y0279802D01*
X0267148Y0280569D01*
X0310397Y0303500D02*
X0310397Y0308104D01*
X0312699Y0308104D01*
X0313467Y0307337D01*
X0313467Y0305802D01*
X0312699Y0305035D01*
X0310397Y0305035D01*
X0311932Y0305035D02*
X0313467Y0303500D01*
X0315001Y0304267D02*
X0315769Y0303500D01*
X0317303Y0303500D01*
X0318071Y0304267D01*
X0318071Y0305035D01*
X0317303Y0305802D01*
X0315769Y0305802D01*
X0315001Y0306569D01*
X0315001Y0307337D01*
X0315769Y0308104D01*
X0317303Y0308104D01*
X0318071Y0307337D01*
X0319605Y0308104D02*
X0322675Y0308104D01*
X0321140Y0308104D02*
X0321140Y0303500D01*
X0329878Y0303500D02*
X0329878Y0308104D01*
X0332180Y0308104D01*
X0332947Y0307337D01*
X0332947Y0305802D01*
X0332180Y0305035D01*
X0329878Y0305035D01*
X0334482Y0305035D02*
X0336784Y0305035D01*
X0337551Y0305802D01*
X0337551Y0307337D01*
X0336784Y0308104D01*
X0334482Y0308104D01*
X0334482Y0303500D01*
X0336016Y0305035D02*
X0337551Y0303500D01*
X0339086Y0304267D02*
X0339853Y0303500D01*
X0341388Y0303500D01*
X0342155Y0304267D01*
X0342155Y0307337D01*
X0341388Y0308104D01*
X0339853Y0308104D01*
X0339086Y0307337D01*
X0339086Y0304267D01*
X0343690Y0303500D02*
X0343690Y0308104D01*
X0345992Y0308104D01*
X0346759Y0307337D01*
X0346759Y0305802D01*
X0345992Y0305035D01*
X0343690Y0305035D01*
X0352897Y0305035D02*
X0355199Y0305035D01*
X0355967Y0305802D01*
X0355967Y0307337D01*
X0355199Y0308104D01*
X0352897Y0308104D01*
X0352897Y0303500D01*
X0354432Y0305035D02*
X0355967Y0303500D01*
X0357501Y0304267D02*
X0358269Y0303500D01*
X0359803Y0303500D01*
X0360571Y0304267D01*
X0360571Y0305035D01*
X0359803Y0305802D01*
X0358269Y0305802D01*
X0357501Y0306569D01*
X0357501Y0307337D01*
X0358269Y0308104D01*
X0359803Y0308104D01*
X0360571Y0307337D01*
X0362105Y0308104D02*
X0365175Y0308104D01*
X0363640Y0308104D02*
X0363640Y0303500D01*
X0335675Y0178871D02*
X0335675Y0178104D01*
X0335675Y0176569D02*
X0335675Y0173500D01*
X0336442Y0173500D02*
X0334907Y0173500D01*
X0333373Y0173500D02*
X0333373Y0175802D01*
X0332605Y0176569D01*
X0330303Y0176569D01*
X0330303Y0173500D01*
X0328769Y0173500D02*
X0327234Y0173500D01*
X0328001Y0173500D02*
X0328001Y0176569D01*
X0327234Y0176569D01*
X0328001Y0178104D02*
X0328001Y0178871D01*
X0325699Y0178104D02*
X0324165Y0176569D01*
X0322630Y0178104D01*
X0322630Y0173500D01*
X0321096Y0175802D02*
X0318026Y0175802D01*
X0316492Y0175802D02*
X0316492Y0174267D01*
X0315724Y0173500D01*
X0313422Y0173500D01*
X0313422Y0171965D02*
X0313422Y0176569D01*
X0315724Y0176569D01*
X0316492Y0175802D01*
X0311888Y0175802D02*
X0311888Y0174267D01*
X0311120Y0173500D01*
X0309586Y0173500D01*
X0308818Y0174267D01*
X0308818Y0175802D01*
X0309586Y0176569D01*
X0311120Y0176569D01*
X0311888Y0175802D01*
X0307284Y0176569D02*
X0306516Y0176569D01*
X0304982Y0175035D01*
X0304982Y0176569D02*
X0304982Y0173500D01*
X0303447Y0175802D02*
X0302680Y0175035D01*
X0300378Y0175035D01*
X0300378Y0173500D02*
X0300378Y0178104D01*
X0302680Y0178104D01*
X0303447Y0177337D01*
X0303447Y0175802D01*
X0302680Y0168104D02*
X0300378Y0168104D01*
X0300378Y0163500D01*
X0300378Y0165035D02*
X0302680Y0165035D01*
X0303447Y0165802D01*
X0303447Y0167337D01*
X0302680Y0168104D01*
X0304982Y0166569D02*
X0306516Y0168104D01*
X0306516Y0163500D01*
X0304982Y0163500D02*
X0308051Y0163500D01*
X0325699Y0173500D02*
X0325699Y0178104D01*
X0334907Y0176569D02*
X0335675Y0176569D01*
X0345378Y0143104D02*
X0345378Y0140035D01*
X0346912Y0138500D01*
X0348447Y0140035D01*
X0348447Y0143104D01*
X0349982Y0143104D02*
X0351516Y0143104D01*
X0350749Y0143104D02*
X0350749Y0138500D01*
X0349982Y0138500D02*
X0351516Y0138500D01*
X0353051Y0138500D02*
X0353051Y0143104D01*
X0356120Y0138500D01*
X0356120Y0143104D01*
X0379141Y0110589D02*
X0380676Y0110589D01*
X0381443Y0109822D01*
X0381443Y0107520D01*
X0381443Y0109054D02*
X0382978Y0110589D01*
X0382978Y0107520D02*
X0378374Y0107520D01*
X0378374Y0109822D01*
X0379141Y0110589D01*
X0378374Y0105985D02*
X0382978Y0105985D01*
X0381443Y0104450D01*
X0382978Y0102916D01*
X0378374Y0102916D01*
X0379141Y0101381D02*
X0380676Y0101381D01*
X0381443Y0100614D01*
X0381443Y0098312D01*
X0382978Y0098312D02*
X0378374Y0098312D01*
X0378374Y0100614D01*
X0379141Y0101381D01*
X0378374Y0092173D02*
X0381443Y0092173D01*
X0382978Y0090639D01*
X0381443Y0089104D01*
X0378374Y0089104D01*
X0378374Y0087569D02*
X0378374Y0084500D01*
X0380676Y0084500D01*
X0379909Y0086035D01*
X0379909Y0086802D01*
X0380676Y0087569D01*
X0382211Y0087569D01*
X0382978Y0086802D01*
X0382978Y0085267D01*
X0382211Y0084500D01*
X0382978Y0081965D02*
X0382978Y0078896D01*
X0382978Y0077361D02*
X0378374Y0077361D01*
X0379909Y0078896D02*
X0378374Y0080431D01*
X0382978Y0080431D01*
X0380676Y0077361D02*
X0380676Y0074292D01*
X0382978Y0074292D02*
X0378374Y0074292D01*
X0367978Y0074292D02*
X0367978Y0076594D01*
X0367211Y0077361D01*
X0364141Y0077361D01*
X0363374Y0076594D01*
X0363374Y0074292D01*
X0367978Y0074292D01*
X0367978Y0072757D02*
X0363374Y0072757D01*
X0365676Y0072757D02*
X0365676Y0069688D01*
X0367978Y0069688D02*
X0363374Y0069688D01*
X0368745Y0068153D02*
X0368745Y0065084D01*
X0367978Y0063550D02*
X0366443Y0062015D01*
X0366443Y0062782D02*
X0366443Y0060480D01*
X0367978Y0060480D02*
X0363374Y0060480D01*
X0363374Y0062782D01*
X0364141Y0063550D01*
X0365676Y0063550D01*
X0366443Y0062782D01*
X0367978Y0058946D02*
X0367978Y0055876D01*
X0363374Y0055876D01*
X0363374Y0058946D01*
X0365676Y0057411D02*
X0365676Y0055876D01*
X0367211Y0054342D02*
X0364141Y0054342D01*
X0363374Y0053574D01*
X0363374Y0051272D01*
X0367978Y0051272D01*
X0367978Y0053574D01*
X0367211Y0054342D01*
X0367211Y0049738D02*
X0364141Y0049738D01*
X0363374Y0048970D01*
X0363374Y0047436D01*
X0364141Y0046668D01*
X0367211Y0046668D01*
X0367978Y0047436D01*
X0367978Y0048970D01*
X0367211Y0049738D01*
X0367211Y0045134D02*
X0367978Y0044367D01*
X0367978Y0042832D01*
X0367211Y0042065D01*
X0364141Y0042065D01*
X0363374Y0042832D01*
X0363374Y0044367D01*
X0364141Y0045134D01*
X0363374Y0040530D02*
X0367978Y0040530D01*
X0363374Y0037461D01*
X0367978Y0037461D01*
X0367978Y0035926D02*
X0367978Y0032857D01*
X0363374Y0032857D01*
X0363374Y0035926D01*
X0365676Y0034391D02*
X0365676Y0032857D01*
X0366443Y0078896D02*
X0366443Y0081198D01*
X0365676Y0081965D01*
X0364141Y0081965D01*
X0363374Y0081198D01*
X0363374Y0078896D01*
X0367978Y0078896D01*
X0366443Y0080431D02*
X0367978Y0081965D01*
X0367211Y0084500D02*
X0367978Y0085267D01*
X0367978Y0086802D01*
X0367211Y0087569D01*
X0363374Y0087569D01*
X0364141Y0089104D02*
X0363374Y0089871D01*
X0363374Y0091406D01*
X0364141Y0092173D01*
X0364909Y0092173D01*
X0365676Y0091406D01*
X0366443Y0092173D01*
X0367211Y0092173D01*
X0367978Y0091406D01*
X0367978Y0089871D01*
X0367211Y0089104D01*
X0365676Y0090639D02*
X0365676Y0091406D01*
X0367211Y0084500D02*
X0363374Y0084500D01*
X0287655Y0139267D02*
X0287655Y0140035D01*
X0286888Y0140802D01*
X0284586Y0140802D01*
X0284586Y0139267D01*
X0285353Y0138500D01*
X0286888Y0138500D01*
X0287655Y0139267D01*
X0284586Y0140802D02*
X0286120Y0142337D01*
X0287655Y0143104D01*
X0281516Y0143104D02*
X0281516Y0138500D01*
X0279982Y0138500D02*
X0283051Y0138500D01*
X0279982Y0141569D02*
X0281516Y0143104D01*
X0278447Y0142337D02*
X0278447Y0140802D01*
X0277680Y0140035D01*
X0275378Y0140035D01*
X0275378Y0138500D02*
X0275378Y0143104D01*
X0277680Y0143104D01*
X0278447Y0142337D01*
X0262120Y0143104D02*
X0262120Y0138500D01*
X0259051Y0143104D01*
X0259051Y0138500D01*
X0257516Y0138500D02*
X0255982Y0138500D01*
X0256749Y0138500D02*
X0256749Y0143104D01*
X0255982Y0143104D02*
X0257516Y0143104D01*
X0254447Y0143104D02*
X0254447Y0140035D01*
X0252912Y0138500D01*
X0251378Y0140035D01*
X0251378Y0143104D01*
X0048289Y0082509D02*
X0048289Y0080974D01*
X0047522Y0080207D01*
X0046754Y0080207D01*
X0045987Y0080974D01*
X0045987Y0082509D01*
X0046754Y0083276D01*
X0047522Y0083276D01*
X0048289Y0082509D01*
X0045987Y0082509D02*
X0045220Y0083276D01*
X0044452Y0083276D01*
X0043685Y0082509D01*
X0043685Y0080974D01*
X0044452Y0080207D01*
X0045220Y0080207D01*
X0045987Y0080974D01*
X0045987Y0078672D02*
X0045987Y0077138D01*
X0045987Y0078672D02*
X0047522Y0078672D01*
X0048289Y0077905D01*
X0048289Y0076370D01*
X0047522Y0075603D01*
X0044452Y0075603D01*
X0043685Y0076370D01*
X0043685Y0077905D01*
X0044452Y0078672D01*
X0045987Y0074068D02*
X0045987Y0070999D01*
X0047522Y0069465D02*
X0044452Y0069465D01*
X0043685Y0068697D01*
X0043685Y0067163D01*
X0044452Y0066395D01*
X0047522Y0066395D01*
X0048289Y0067163D01*
X0048289Y0068697D01*
X0047522Y0069465D01*
X0047522Y0064861D02*
X0048289Y0064093D01*
X0048289Y0062559D01*
X0047522Y0061791D01*
X0047522Y0060257D02*
X0044452Y0060257D01*
X0043685Y0059489D01*
X0043685Y0057187D01*
X0048289Y0057187D01*
X0048289Y0059489D01*
X0047522Y0060257D01*
X0045987Y0062559D02*
X0045987Y0064093D01*
X0046754Y0064861D01*
X0047522Y0064861D01*
X0045987Y0062559D02*
X0045220Y0061791D01*
X0044452Y0061791D01*
X0043685Y0062559D01*
X0043685Y0064093D01*
X0044452Y0064861D01*
X0044452Y0055653D02*
X0045987Y0055653D01*
X0046754Y0054885D01*
X0046754Y0052583D01*
X0048289Y0052583D02*
X0043685Y0052583D01*
X0043685Y0054885D01*
X0044452Y0055653D01*
X0045987Y0051049D02*
X0045987Y0047980D01*
X0045987Y0046445D02*
X0046754Y0045678D01*
X0046754Y0043376D01*
X0046754Y0044910D02*
X0048289Y0046445D01*
X0045987Y0046445D02*
X0044452Y0046445D01*
X0043685Y0045678D01*
X0043685Y0043376D01*
X0048289Y0043376D01*
X0020730Y0063226D02*
X0020730Y0064760D01*
X0019963Y0065528D01*
X0016126Y0065528D01*
X0016893Y0067062D02*
X0016126Y0067830D01*
X0016126Y0069364D01*
X0016893Y0070131D01*
X0018428Y0069364D02*
X0018428Y0067830D01*
X0017661Y0067062D01*
X0016893Y0067062D01*
X0015359Y0068597D02*
X0021497Y0068597D01*
X0020730Y0069364D02*
X0019963Y0070131D01*
X0019195Y0070131D01*
X0018428Y0069364D01*
X0020730Y0069364D02*
X0020730Y0067830D01*
X0019963Y0067062D01*
X0020730Y0063226D02*
X0019963Y0062458D01*
X0016126Y0062458D01*
X0016126Y0071666D02*
X0018428Y0071666D01*
X0017661Y0073201D01*
X0017661Y0073968D01*
X0018428Y0074735D01*
X0019963Y0074735D01*
X0020730Y0073968D01*
X0020730Y0072433D01*
X0019963Y0071666D01*
X0016126Y0071666D02*
X0016126Y0074735D01*
X0016893Y0076270D02*
X0016126Y0077037D01*
X0016126Y0078572D01*
X0016893Y0079339D01*
X0019963Y0076270D01*
X0020730Y0077037D01*
X0020730Y0078572D01*
X0019963Y0079339D01*
X0016893Y0079339D01*
X0016893Y0076270D02*
X0019963Y0076270D01*
D13*
X0178227Y0187850D02*
X0179394Y0187850D01*
X0179628Y0188084D01*
X0179628Y0188551D01*
X0179394Y0188784D01*
X0178227Y0188784D01*
X0178927Y0189231D02*
X0178460Y0189698D01*
X0178227Y0190165D01*
X0178460Y0190612D02*
X0178227Y0190846D01*
X0178227Y0191313D01*
X0178460Y0191546D01*
X0179394Y0190612D01*
X0179628Y0190846D01*
X0179628Y0191313D01*
X0179394Y0191546D01*
X0178460Y0191546D01*
X0178460Y0190612D02*
X0179394Y0190612D01*
X0179394Y0190165D02*
X0179161Y0190165D01*
X0178927Y0189932D01*
X0178927Y0189231D01*
X0179394Y0189231D01*
X0179628Y0189465D01*
X0179628Y0189932D01*
X0179394Y0190165D01*
X0186728Y0185851D02*
X0186728Y0184350D01*
X0186728Y0184850D02*
X0187479Y0184850D01*
X0187729Y0185101D01*
X0187729Y0185601D01*
X0187479Y0185851D01*
X0186728Y0185851D01*
X0188201Y0185601D02*
X0188451Y0185851D01*
X0188952Y0185851D01*
X0189202Y0185601D01*
X0189202Y0185351D01*
X0188201Y0184350D01*
X0189202Y0184350D01*
X0189674Y0184350D02*
X0189925Y0184350D01*
X0189925Y0184600D01*
X0189674Y0184600D01*
X0189674Y0184350D01*
X0190411Y0184600D02*
X0191412Y0185601D01*
X0191412Y0184600D01*
X0191162Y0184350D01*
X0190661Y0184350D01*
X0190411Y0184600D01*
X0190411Y0185601D01*
X0190661Y0185851D01*
X0191162Y0185851D01*
X0191412Y0185601D01*
X0196728Y0185851D02*
X0196728Y0184350D01*
X0196728Y0184850D02*
X0197479Y0184850D01*
X0197729Y0185101D01*
X0197729Y0185601D01*
X0197479Y0185851D01*
X0196728Y0185851D01*
X0198201Y0185601D02*
X0198451Y0185851D01*
X0198952Y0185851D01*
X0199202Y0185601D01*
X0199202Y0185351D01*
X0198201Y0184350D01*
X0199202Y0184350D01*
X0199674Y0184350D02*
X0199925Y0184350D01*
X0199925Y0184600D01*
X0199674Y0184600D01*
X0199674Y0184350D01*
X0200411Y0184350D02*
X0201412Y0184350D01*
X0200911Y0184350D02*
X0200911Y0185851D01*
X0200411Y0185351D01*
X0206728Y0185851D02*
X0206728Y0184350D01*
X0206728Y0184850D02*
X0207479Y0184850D01*
X0207729Y0185101D01*
X0207729Y0185601D01*
X0207479Y0185851D01*
X0206728Y0185851D01*
X0208201Y0185601D02*
X0208451Y0185851D01*
X0208952Y0185851D01*
X0209202Y0185601D01*
X0209202Y0185351D01*
X0208201Y0184350D01*
X0209202Y0184350D01*
X0209674Y0184350D02*
X0209925Y0184350D01*
X0209925Y0184600D01*
X0209674Y0184600D01*
X0209674Y0184350D01*
X0210411Y0184350D02*
X0211412Y0185351D01*
X0211412Y0185601D01*
X0211162Y0185851D01*
X0210661Y0185851D01*
X0210411Y0185601D01*
X0210411Y0184350D02*
X0211412Y0184350D01*
X0216228Y0184350D02*
X0216228Y0185851D01*
X0216979Y0185851D01*
X0217229Y0185601D01*
X0217229Y0185101D01*
X0216979Y0184850D01*
X0216228Y0184850D01*
X0217701Y0184350D02*
X0218702Y0185351D01*
X0218702Y0185601D01*
X0218452Y0185851D01*
X0217951Y0185851D01*
X0217701Y0185601D01*
X0217701Y0184350D02*
X0218702Y0184350D01*
X0219174Y0184350D02*
X0219425Y0184350D01*
X0219425Y0184600D01*
X0219174Y0184600D01*
X0219174Y0184350D01*
X0219911Y0184600D02*
X0220161Y0184350D01*
X0220662Y0184350D01*
X0220912Y0184600D01*
X0220912Y0184850D01*
X0220662Y0185101D01*
X0220411Y0185101D01*
X0220662Y0185101D02*
X0220912Y0185351D01*
X0220912Y0185601D01*
X0220662Y0185851D01*
X0220161Y0185851D01*
X0219911Y0185601D01*
X0226728Y0185851D02*
X0226728Y0184350D01*
X0226728Y0184850D02*
X0227479Y0184850D01*
X0227729Y0185101D01*
X0227729Y0185601D01*
X0227479Y0185851D01*
X0226728Y0185851D01*
X0228201Y0185601D02*
X0228451Y0185851D01*
X0228952Y0185851D01*
X0229202Y0185601D01*
X0229202Y0185351D01*
X0228201Y0184350D01*
X0229202Y0184350D01*
X0229674Y0184350D02*
X0229925Y0184350D01*
X0229925Y0184600D01*
X0229674Y0184600D01*
X0229674Y0184350D01*
X0230411Y0185101D02*
X0231162Y0185851D01*
X0231162Y0184350D01*
X0231412Y0185101D02*
X0230411Y0185101D01*
X0236728Y0184850D02*
X0237479Y0184850D01*
X0237729Y0185101D01*
X0237729Y0185601D01*
X0237479Y0185851D01*
X0236728Y0185851D01*
X0236728Y0184350D01*
X0238201Y0184350D02*
X0239202Y0185351D01*
X0239202Y0185601D01*
X0238952Y0185851D01*
X0238451Y0185851D01*
X0238201Y0185601D01*
X0238201Y0184350D02*
X0239202Y0184350D01*
X0239674Y0184350D02*
X0239925Y0184350D01*
X0239925Y0184600D01*
X0239674Y0184600D01*
X0239674Y0184350D01*
X0240411Y0184600D02*
X0240661Y0184350D01*
X0241162Y0184350D01*
X0241412Y0184600D01*
X0241412Y0185101D01*
X0241162Y0185351D01*
X0240911Y0185351D01*
X0240411Y0185101D01*
X0240411Y0185851D01*
X0241412Y0185851D01*
X0246228Y0185851D02*
X0246228Y0184350D01*
X0246228Y0184850D02*
X0246979Y0184850D01*
X0247229Y0185101D01*
X0247229Y0185601D01*
X0246979Y0185851D01*
X0246228Y0185851D01*
X0247701Y0185601D02*
X0247951Y0185851D01*
X0248452Y0185851D01*
X0248702Y0185601D01*
X0248702Y0185351D01*
X0247701Y0184350D01*
X0248702Y0184350D01*
X0249174Y0184350D02*
X0249425Y0184350D01*
X0249425Y0184600D01*
X0249174Y0184600D01*
X0249174Y0184350D01*
X0249911Y0184600D02*
X0250161Y0184350D01*
X0250662Y0184350D01*
X0250912Y0184600D01*
X0250912Y0184850D01*
X0250662Y0185101D01*
X0249911Y0185101D01*
X0249911Y0184600D01*
X0249911Y0185101D02*
X0250411Y0185601D01*
X0250912Y0185851D01*
X0256728Y0185851D02*
X0256728Y0184350D01*
X0256728Y0184850D02*
X0257479Y0184850D01*
X0257729Y0185101D01*
X0257729Y0185601D01*
X0257479Y0185851D01*
X0256728Y0185851D01*
X0258201Y0185601D02*
X0258451Y0185851D01*
X0258952Y0185851D01*
X0259202Y0185601D01*
X0259202Y0185351D01*
X0258201Y0184350D01*
X0259202Y0184350D01*
X0259674Y0184350D02*
X0259925Y0184350D01*
X0259925Y0184600D01*
X0259674Y0184600D01*
X0259674Y0184350D01*
X0260411Y0184350D02*
X0260411Y0184600D01*
X0261412Y0185601D01*
X0261412Y0185851D01*
X0260411Y0185851D01*
X0266728Y0185851D02*
X0266728Y0184350D01*
X0266728Y0184850D02*
X0267479Y0184850D01*
X0267729Y0185101D01*
X0267729Y0185601D01*
X0267479Y0185851D01*
X0266728Y0185851D01*
X0268201Y0185601D02*
X0268451Y0185851D01*
X0268952Y0185851D01*
X0269202Y0185601D01*
X0269202Y0185351D01*
X0268201Y0184350D01*
X0269202Y0184350D01*
X0269674Y0184350D02*
X0269925Y0184350D01*
X0269925Y0184600D01*
X0269674Y0184600D01*
X0269674Y0184350D01*
X0270411Y0184350D02*
X0271412Y0184350D01*
X0270911Y0184350D02*
X0270911Y0185851D01*
X0270411Y0185351D01*
X0271884Y0185601D02*
X0272134Y0185851D01*
X0272635Y0185851D01*
X0272885Y0185601D01*
X0271884Y0184600D01*
X0272134Y0184350D01*
X0272635Y0184350D01*
X0272885Y0184600D01*
X0272885Y0185601D01*
X0271884Y0185601D02*
X0271884Y0184600D01*
X0276728Y0184350D02*
X0276728Y0185851D01*
X0277479Y0185851D01*
X0277729Y0185601D01*
X0277729Y0185101D01*
X0277479Y0184850D01*
X0276728Y0184850D01*
X0278201Y0184350D02*
X0279202Y0185351D01*
X0279202Y0185601D01*
X0278952Y0185851D01*
X0278451Y0185851D01*
X0278201Y0185601D01*
X0278201Y0184350D02*
X0279202Y0184350D01*
X0279674Y0184350D02*
X0279925Y0184350D01*
X0279925Y0184600D01*
X0279674Y0184600D01*
X0279674Y0184350D01*
X0280411Y0184350D02*
X0281412Y0184350D01*
X0281884Y0184350D02*
X0282885Y0184350D01*
X0282385Y0184350D02*
X0282385Y0185851D01*
X0281884Y0185351D01*
X0280911Y0185851D02*
X0280911Y0184350D01*
X0280411Y0185351D02*
X0280911Y0185851D01*
X0289228Y0185851D02*
X0289228Y0184350D01*
X0289228Y0184850D02*
X0289979Y0184850D01*
X0290229Y0185101D01*
X0290229Y0185601D01*
X0289979Y0185851D01*
X0289228Y0185851D01*
X0290701Y0185351D02*
X0291202Y0185851D01*
X0291202Y0184350D01*
X0291702Y0184350D02*
X0290701Y0184350D01*
X0292174Y0184350D02*
X0292425Y0184350D01*
X0292425Y0184600D01*
X0292174Y0184600D01*
X0292174Y0184350D01*
X0292911Y0184600D02*
X0293912Y0185601D01*
X0293912Y0184600D01*
X0293662Y0184350D01*
X0293161Y0184350D01*
X0292911Y0184600D01*
X0292911Y0185601D01*
X0293161Y0185851D01*
X0293662Y0185851D01*
X0293912Y0185601D01*
X0298728Y0185851D02*
X0298728Y0184350D01*
X0298728Y0184850D02*
X0299479Y0184850D01*
X0299729Y0185101D01*
X0299729Y0185601D01*
X0299479Y0185851D01*
X0298728Y0185851D01*
X0300201Y0185351D02*
X0300702Y0185851D01*
X0300702Y0184350D01*
X0301202Y0184350D02*
X0300201Y0184350D01*
X0301674Y0184350D02*
X0301925Y0184350D01*
X0301925Y0184600D01*
X0301674Y0184600D01*
X0301674Y0184350D01*
X0302411Y0184350D02*
X0303412Y0184350D01*
X0302911Y0184350D02*
X0302911Y0185851D01*
X0302411Y0185351D01*
X0308728Y0185851D02*
X0308728Y0184350D01*
X0308728Y0184850D02*
X0309479Y0184850D01*
X0309729Y0185101D01*
X0309729Y0185601D01*
X0309479Y0185851D01*
X0308728Y0185851D01*
X0310201Y0185351D02*
X0310702Y0185851D01*
X0310702Y0184350D01*
X0311202Y0184350D02*
X0310201Y0184350D01*
X0311674Y0184350D02*
X0311925Y0184350D01*
X0311925Y0184600D01*
X0311674Y0184600D01*
X0311674Y0184350D01*
X0312411Y0184350D02*
X0313412Y0185351D01*
X0313412Y0185601D01*
X0313162Y0185851D01*
X0312661Y0185851D01*
X0312411Y0185601D01*
X0312411Y0184350D02*
X0313412Y0184350D01*
X0318728Y0184350D02*
X0318728Y0185851D01*
X0319479Y0185851D01*
X0319729Y0185601D01*
X0319729Y0185101D01*
X0319479Y0184850D01*
X0318728Y0184850D01*
X0320201Y0184350D02*
X0321202Y0184350D01*
X0321674Y0184350D02*
X0321925Y0184350D01*
X0321925Y0184600D01*
X0321674Y0184600D01*
X0321674Y0184350D01*
X0322411Y0184600D02*
X0322661Y0184350D01*
X0323162Y0184350D01*
X0323412Y0184600D01*
X0323412Y0184850D01*
X0323162Y0185101D01*
X0322911Y0185101D01*
X0323162Y0185101D02*
X0323412Y0185351D01*
X0323412Y0185601D01*
X0323162Y0185851D01*
X0322661Y0185851D01*
X0322411Y0185601D01*
X0320702Y0185851D02*
X0320702Y0184350D01*
X0320201Y0185351D02*
X0320702Y0185851D01*
X0329228Y0185851D02*
X0329228Y0184350D01*
X0329228Y0184850D02*
X0329979Y0184850D01*
X0330229Y0185101D01*
X0330229Y0185601D01*
X0329979Y0185851D01*
X0329228Y0185851D01*
X0330701Y0185351D02*
X0331202Y0185851D01*
X0331202Y0184350D01*
X0331702Y0184350D02*
X0330701Y0184350D01*
X0332174Y0184350D02*
X0332425Y0184350D01*
X0332425Y0184600D01*
X0332174Y0184600D01*
X0332174Y0184350D01*
X0332911Y0185101D02*
X0333912Y0185101D01*
X0333662Y0185851D02*
X0333662Y0184350D01*
X0332911Y0185101D02*
X0333662Y0185851D01*
X0338728Y0185851D02*
X0338728Y0184350D01*
X0338728Y0184850D02*
X0339479Y0184850D01*
X0339729Y0185101D01*
X0339729Y0185601D01*
X0339479Y0185851D01*
X0338728Y0185851D01*
X0340201Y0185351D02*
X0340702Y0185851D01*
X0340702Y0184350D01*
X0341202Y0184350D02*
X0340201Y0184350D01*
X0341674Y0184350D02*
X0341925Y0184350D01*
X0341925Y0184600D01*
X0341674Y0184600D01*
X0341674Y0184350D01*
X0342411Y0184600D02*
X0342661Y0184350D01*
X0343162Y0184350D01*
X0343412Y0184600D01*
X0343412Y0185101D01*
X0343162Y0185351D01*
X0342911Y0185351D01*
X0342411Y0185101D01*
X0342411Y0185851D01*
X0343412Y0185851D01*
X0349228Y0185851D02*
X0349228Y0184350D01*
X0349228Y0184850D02*
X0349979Y0184850D01*
X0350229Y0185101D01*
X0350229Y0185601D01*
X0349979Y0185851D01*
X0349228Y0185851D01*
X0350701Y0185351D02*
X0351202Y0185851D01*
X0351202Y0184350D01*
X0351702Y0184350D02*
X0350701Y0184350D01*
X0352174Y0184350D02*
X0352425Y0184350D01*
X0352425Y0184600D01*
X0352174Y0184600D01*
X0352174Y0184350D01*
X0352911Y0184600D02*
X0353161Y0184350D01*
X0353662Y0184350D01*
X0353912Y0184600D01*
X0353912Y0184850D01*
X0353662Y0185101D01*
X0352911Y0185101D01*
X0352911Y0184600D01*
X0352911Y0185101D02*
X0353411Y0185601D01*
X0353912Y0185851D01*
X0359228Y0185851D02*
X0359228Y0184350D01*
X0359228Y0184850D02*
X0359979Y0184850D01*
X0360229Y0185101D01*
X0360229Y0185601D01*
X0359979Y0185851D01*
X0359228Y0185851D01*
X0360701Y0185351D02*
X0361202Y0185851D01*
X0361202Y0184350D01*
X0361702Y0184350D02*
X0360701Y0184350D01*
X0362174Y0184350D02*
X0362425Y0184350D01*
X0362425Y0184600D01*
X0362174Y0184600D01*
X0362174Y0184350D01*
X0362911Y0184350D02*
X0362911Y0184600D01*
X0363912Y0185601D01*
X0363912Y0185851D01*
X0362911Y0185851D01*
X0368728Y0186351D02*
X0368728Y0184850D01*
X0368728Y0185350D02*
X0369479Y0185350D01*
X0369729Y0185601D01*
X0369729Y0186101D01*
X0369479Y0186351D01*
X0368728Y0186351D01*
X0370201Y0185851D02*
X0370702Y0186351D01*
X0370702Y0184850D01*
X0371202Y0184850D02*
X0370201Y0184850D01*
X0371674Y0184850D02*
X0371925Y0184850D01*
X0371925Y0185100D01*
X0371674Y0185100D01*
X0371674Y0184850D01*
X0372411Y0184850D02*
X0373412Y0184850D01*
X0372911Y0184850D02*
X0372911Y0186351D01*
X0372411Y0185851D01*
X0373884Y0186101D02*
X0373884Y0185100D01*
X0374885Y0186101D01*
X0374885Y0185100D01*
X0374635Y0184850D01*
X0374134Y0184850D01*
X0373884Y0185100D01*
X0373884Y0186101D02*
X0374134Y0186351D01*
X0374635Y0186351D01*
X0374885Y0186101D01*
X0378728Y0185851D02*
X0378728Y0184350D01*
X0378728Y0184850D02*
X0379479Y0184850D01*
X0379729Y0185101D01*
X0379729Y0185601D01*
X0379479Y0185851D01*
X0378728Y0185851D01*
X0380201Y0185351D02*
X0380702Y0185851D01*
X0380702Y0184350D01*
X0381202Y0184350D02*
X0380201Y0184350D01*
X0381674Y0184350D02*
X0381925Y0184350D01*
X0381925Y0184600D01*
X0381674Y0184600D01*
X0381674Y0184350D01*
X0382411Y0184350D02*
X0383412Y0184350D01*
X0383884Y0184350D02*
X0384885Y0184350D01*
X0384385Y0184350D02*
X0384385Y0185851D01*
X0383884Y0185351D01*
X0382911Y0185851D02*
X0382911Y0184350D01*
X0382411Y0185351D02*
X0382911Y0185851D01*
X0390727Y0192706D02*
X0391894Y0192706D01*
X0392128Y0192940D01*
X0392128Y0193407D01*
X0391894Y0193641D01*
X0390727Y0193641D01*
X0391427Y0194088D02*
X0391427Y0194788D01*
X0391661Y0195022D01*
X0391894Y0195022D01*
X0392128Y0194788D01*
X0392128Y0194321D01*
X0391894Y0194088D01*
X0391427Y0194088D01*
X0390960Y0194555D01*
X0390727Y0195022D01*
X0391194Y0195469D02*
X0390727Y0195936D01*
X0392128Y0195936D01*
X0392128Y0195469D02*
X0392128Y0196403D01*
X0391394Y0201706D02*
X0391628Y0201940D01*
X0391628Y0202407D01*
X0391394Y0202641D01*
X0390227Y0202641D01*
X0390927Y0203088D02*
X0390927Y0203788D01*
X0391161Y0204022D01*
X0391394Y0204022D01*
X0391628Y0203788D01*
X0391628Y0203321D01*
X0391394Y0203088D01*
X0390927Y0203088D01*
X0390460Y0203555D01*
X0390227Y0204022D01*
X0390227Y0204469D02*
X0390227Y0205403D01*
X0390460Y0205403D01*
X0391394Y0204469D01*
X0391628Y0204469D01*
X0391394Y0201706D02*
X0390227Y0201706D01*
X0390227Y0211206D02*
X0391394Y0211206D01*
X0391628Y0211440D01*
X0391628Y0211907D01*
X0391394Y0212141D01*
X0390227Y0212141D01*
X0390227Y0212588D02*
X0390927Y0212588D01*
X0390694Y0213055D01*
X0390694Y0213288D01*
X0390927Y0213522D01*
X0391394Y0213522D01*
X0391628Y0213288D01*
X0391628Y0212821D01*
X0391394Y0212588D01*
X0390227Y0212588D02*
X0390227Y0213522D01*
X0390460Y0213969D02*
X0390694Y0213969D01*
X0390927Y0214202D01*
X0390927Y0214669D01*
X0391161Y0214903D01*
X0391394Y0214903D01*
X0391628Y0214669D01*
X0391628Y0214202D01*
X0391394Y0213969D01*
X0391161Y0213969D01*
X0390927Y0214202D01*
X0390927Y0214669D02*
X0390694Y0214903D01*
X0390460Y0214903D01*
X0390227Y0214669D01*
X0390227Y0214202D01*
X0390460Y0213969D01*
X0261246Y0308250D02*
X0260996Y0308500D01*
X0260996Y0309501D01*
X0260746Y0309251D02*
X0261246Y0309251D01*
X0260269Y0309251D02*
X0260018Y0309251D01*
X0259518Y0308750D01*
X0259046Y0308750D02*
X0258045Y0308750D01*
X0258045Y0308500D02*
X0258045Y0309001D01*
X0258295Y0309251D01*
X0258795Y0309251D01*
X0259046Y0309001D01*
X0259046Y0308750D01*
X0258795Y0308250D02*
X0258295Y0308250D01*
X0258045Y0308500D01*
X0257572Y0308500D02*
X0257322Y0308750D01*
X0256822Y0308750D01*
X0256571Y0309001D01*
X0256822Y0309251D01*
X0257572Y0309251D01*
X0257572Y0308500D02*
X0257322Y0308250D01*
X0256571Y0308250D01*
X0256099Y0308250D02*
X0256099Y0309001D01*
X0255849Y0309251D01*
X0255098Y0309251D01*
X0255098Y0308250D01*
X0254616Y0308250D02*
X0254116Y0308250D01*
X0254366Y0308250D02*
X0254366Y0309751D01*
X0254116Y0309751D02*
X0254616Y0309751D01*
X0252170Y0309751D02*
X0252170Y0308250D01*
X0251420Y0308250D01*
X0251169Y0308500D01*
X0251169Y0309001D01*
X0251420Y0309251D01*
X0252170Y0309251D01*
X0250692Y0309251D02*
X0250442Y0309251D01*
X0249942Y0308750D01*
X0249942Y0308250D02*
X0249942Y0309251D01*
X0249469Y0309001D02*
X0249219Y0309251D01*
X0248719Y0309251D01*
X0248469Y0309001D01*
X0248469Y0308500D01*
X0248719Y0308250D01*
X0249219Y0308250D01*
X0249469Y0308500D01*
X0249469Y0309001D01*
X0247996Y0309501D02*
X0247746Y0309751D01*
X0247245Y0309751D01*
X0246995Y0309501D01*
X0246995Y0308500D01*
X0247245Y0308250D01*
X0247746Y0308250D01*
X0247996Y0308500D01*
X0259518Y0308250D02*
X0259518Y0309251D01*
X0216753Y0313775D02*
X0216507Y0314021D01*
X0216507Y0315005D01*
X0216261Y0314759D02*
X0216753Y0314759D01*
X0215791Y0314759D02*
X0215545Y0314759D01*
X0215053Y0314267D01*
X0214587Y0314267D02*
X0213603Y0314267D01*
X0213603Y0314021D02*
X0213603Y0314513D01*
X0213849Y0314759D01*
X0214341Y0314759D01*
X0214587Y0314513D01*
X0214587Y0314267D01*
X0214341Y0313775D02*
X0213849Y0313775D01*
X0213603Y0314021D01*
X0213137Y0314021D02*
X0212891Y0314267D01*
X0212399Y0314267D01*
X0212153Y0314513D01*
X0212399Y0314759D01*
X0213137Y0314759D01*
X0213137Y0314021D02*
X0212891Y0313775D01*
X0212153Y0313775D01*
X0211687Y0313775D02*
X0211687Y0314513D01*
X0211441Y0314759D01*
X0210703Y0314759D01*
X0210703Y0313775D01*
X0210228Y0313775D02*
X0209736Y0313775D01*
X0209982Y0313775D02*
X0209982Y0315251D01*
X0209736Y0315251D02*
X0210228Y0315251D01*
X0207820Y0315251D02*
X0207820Y0313775D01*
X0207082Y0313775D01*
X0206836Y0314021D01*
X0206836Y0314513D01*
X0207082Y0314759D01*
X0207820Y0314759D01*
X0206365Y0314759D02*
X0206119Y0314759D01*
X0205627Y0314267D01*
X0205627Y0313775D02*
X0205627Y0314759D01*
X0205161Y0314513D02*
X0204915Y0314759D01*
X0204423Y0314759D01*
X0204177Y0314513D01*
X0204177Y0314021D01*
X0204423Y0313775D01*
X0204915Y0313775D01*
X0205161Y0314021D01*
X0205161Y0314513D01*
X0203711Y0314021D02*
X0203465Y0313775D01*
X0202973Y0313775D01*
X0202727Y0314021D01*
X0202727Y0315005D01*
X0202973Y0315251D01*
X0203465Y0315251D01*
X0203711Y0315005D01*
X0215053Y0314759D02*
X0215053Y0313775D01*
X0179628Y0211546D02*
X0179628Y0210612D01*
X0178694Y0211546D01*
X0178460Y0211546D01*
X0178227Y0211313D01*
X0178227Y0210846D01*
X0178460Y0210612D01*
X0178227Y0210165D02*
X0178460Y0209698D01*
X0178927Y0209231D01*
X0178927Y0209932D01*
X0179161Y0210165D01*
X0179394Y0210165D01*
X0179628Y0209932D01*
X0179628Y0209465D01*
X0179394Y0209231D01*
X0178927Y0209231D01*
X0179394Y0208784D02*
X0178227Y0208784D01*
X0178227Y0207850D02*
X0179394Y0207850D01*
X0179628Y0208084D01*
X0179628Y0208551D01*
X0179394Y0208784D01*
X0178460Y0202546D02*
X0179394Y0201612D01*
X0179628Y0201612D01*
X0179394Y0201165D02*
X0179628Y0200932D01*
X0179628Y0200465D01*
X0179394Y0200231D01*
X0179394Y0199784D02*
X0178227Y0199784D01*
X0178227Y0200231D02*
X0178927Y0200231D01*
X0178694Y0200698D01*
X0178694Y0200932D01*
X0178927Y0201165D01*
X0179394Y0201165D01*
X0178227Y0201165D02*
X0178227Y0200231D01*
X0179394Y0199784D02*
X0179628Y0199551D01*
X0179628Y0199084D01*
X0179394Y0198850D01*
X0178227Y0198850D01*
X0178227Y0201612D02*
X0178227Y0202546D01*
X0178460Y0202546D01*
D14*
X0173406Y0204300D02*
X0173406Y0207253D01*
X0173406Y0209418D01*
X0173406Y0207253D02*
X0163564Y0207253D01*
X0163564Y0209418D01*
X0173406Y0204300D02*
X0076950Y0204300D01*
X0076950Y0207253D01*
X0086792Y0207253D01*
X0086792Y0209418D01*
X0076950Y0209418D02*
X0076950Y0207253D01*
X0094621Y0170091D02*
X0096735Y0170091D01*
X0100678Y0168991D02*
X0100678Y0165609D01*
X0090678Y0165609D02*
X0090678Y0168991D01*
X0086792Y0285402D02*
X0086792Y0287961D01*
X0076950Y0287961D01*
X0076950Y0285402D01*
X0076950Y0287961D02*
X0105493Y0312961D01*
X0144863Y0312961D01*
X0173406Y0287961D01*
X0163564Y0287961D01*
X0163564Y0285402D01*
X0173406Y0285402D02*
X0173406Y0287961D01*
X0293516Y0290150D02*
X0295091Y0290150D01*
X0293516Y0290150D02*
X0293516Y0296450D01*
X0295091Y0296450D01*
X0297060Y0301961D02*
X0307296Y0301961D01*
X0309264Y0296450D02*
X0310839Y0296450D01*
X0310839Y0290150D01*
X0309264Y0290150D01*
X0297178Y0293300D02*
X0297180Y0293441D01*
X0297186Y0293582D01*
X0297196Y0293722D01*
X0297210Y0293862D01*
X0297228Y0294002D01*
X0297249Y0294141D01*
X0297275Y0294280D01*
X0297304Y0294418D01*
X0297338Y0294554D01*
X0297375Y0294690D01*
X0297416Y0294825D01*
X0297461Y0294959D01*
X0297510Y0295091D01*
X0297562Y0295222D01*
X0297618Y0295351D01*
X0297678Y0295478D01*
X0297741Y0295604D01*
X0297807Y0295728D01*
X0297878Y0295851D01*
X0297951Y0295971D01*
X0298028Y0296089D01*
X0298108Y0296205D01*
X0298192Y0296318D01*
X0298278Y0296429D01*
X0298368Y0296538D01*
X0298461Y0296644D01*
X0298556Y0296747D01*
X0298655Y0296848D01*
X0298756Y0296946D01*
X0298860Y0297041D01*
X0298967Y0297133D01*
X0299076Y0297222D01*
X0299188Y0297307D01*
X0299302Y0297390D01*
X0299418Y0297470D01*
X0299537Y0297546D01*
X0299658Y0297618D01*
X0299780Y0297688D01*
X0299905Y0297753D01*
X0300031Y0297816D01*
X0300159Y0297874D01*
X0300289Y0297929D01*
X0300420Y0297981D01*
X0300553Y0298028D01*
X0300687Y0298072D01*
X0300822Y0298113D01*
X0300958Y0298149D01*
X0301095Y0298181D01*
X0301233Y0298210D01*
X0301371Y0298235D01*
X0301511Y0298255D01*
X0301651Y0298272D01*
X0301791Y0298285D01*
X0301932Y0298294D01*
X0302072Y0298299D01*
X0302213Y0298300D01*
X0302354Y0298297D01*
X0302495Y0298290D01*
X0302635Y0298279D01*
X0302775Y0298264D01*
X0302915Y0298245D01*
X0303054Y0298223D01*
X0303192Y0298196D01*
X0303330Y0298166D01*
X0303466Y0298131D01*
X0303602Y0298093D01*
X0303736Y0298051D01*
X0303870Y0298005D01*
X0304002Y0297956D01*
X0304132Y0297902D01*
X0304261Y0297845D01*
X0304388Y0297785D01*
X0304514Y0297721D01*
X0304637Y0297653D01*
X0304759Y0297582D01*
X0304879Y0297508D01*
X0304996Y0297430D01*
X0305111Y0297349D01*
X0305224Y0297265D01*
X0305335Y0297178D01*
X0305443Y0297087D01*
X0305548Y0296994D01*
X0305651Y0296897D01*
X0305751Y0296798D01*
X0305848Y0296696D01*
X0305942Y0296591D01*
X0306033Y0296484D01*
X0306121Y0296374D01*
X0306206Y0296262D01*
X0306288Y0296147D01*
X0306367Y0296030D01*
X0306442Y0295911D01*
X0306514Y0295790D01*
X0306582Y0295667D01*
X0306647Y0295542D01*
X0306709Y0295415D01*
X0306766Y0295286D01*
X0306821Y0295156D01*
X0306871Y0295025D01*
X0306918Y0294892D01*
X0306961Y0294758D01*
X0307000Y0294622D01*
X0307035Y0294486D01*
X0307067Y0294349D01*
X0307094Y0294211D01*
X0307118Y0294072D01*
X0307138Y0293932D01*
X0307154Y0293792D01*
X0307166Y0293652D01*
X0307174Y0293511D01*
X0307178Y0293370D01*
X0307178Y0293230D01*
X0307174Y0293089D01*
X0307166Y0292948D01*
X0307154Y0292808D01*
X0307138Y0292668D01*
X0307118Y0292528D01*
X0307094Y0292389D01*
X0307067Y0292251D01*
X0307035Y0292114D01*
X0307000Y0291978D01*
X0306961Y0291842D01*
X0306918Y0291708D01*
X0306871Y0291575D01*
X0306821Y0291444D01*
X0306766Y0291314D01*
X0306709Y0291185D01*
X0306647Y0291058D01*
X0306582Y0290933D01*
X0306514Y0290810D01*
X0306442Y0290689D01*
X0306367Y0290570D01*
X0306288Y0290453D01*
X0306206Y0290338D01*
X0306121Y0290226D01*
X0306033Y0290116D01*
X0305942Y0290009D01*
X0305848Y0289904D01*
X0305751Y0289802D01*
X0305651Y0289703D01*
X0305548Y0289606D01*
X0305443Y0289513D01*
X0305335Y0289422D01*
X0305224Y0289335D01*
X0305111Y0289251D01*
X0304996Y0289170D01*
X0304879Y0289092D01*
X0304759Y0289018D01*
X0304637Y0288947D01*
X0304514Y0288879D01*
X0304388Y0288815D01*
X0304261Y0288755D01*
X0304132Y0288698D01*
X0304002Y0288644D01*
X0303870Y0288595D01*
X0303736Y0288549D01*
X0303602Y0288507D01*
X0303466Y0288469D01*
X0303330Y0288434D01*
X0303192Y0288404D01*
X0303054Y0288377D01*
X0302915Y0288355D01*
X0302775Y0288336D01*
X0302635Y0288321D01*
X0302495Y0288310D01*
X0302354Y0288303D01*
X0302213Y0288300D01*
X0302072Y0288301D01*
X0301932Y0288306D01*
X0301791Y0288315D01*
X0301651Y0288328D01*
X0301511Y0288345D01*
X0301371Y0288365D01*
X0301233Y0288390D01*
X0301095Y0288419D01*
X0300958Y0288451D01*
X0300822Y0288487D01*
X0300687Y0288528D01*
X0300553Y0288572D01*
X0300420Y0288619D01*
X0300289Y0288671D01*
X0300159Y0288726D01*
X0300031Y0288784D01*
X0299905Y0288847D01*
X0299780Y0288912D01*
X0299658Y0288982D01*
X0299537Y0289054D01*
X0299418Y0289130D01*
X0299302Y0289210D01*
X0299188Y0289293D01*
X0299076Y0289378D01*
X0298967Y0289467D01*
X0298860Y0289559D01*
X0298756Y0289654D01*
X0298655Y0289752D01*
X0298556Y0289853D01*
X0298461Y0289956D01*
X0298368Y0290062D01*
X0298278Y0290171D01*
X0298192Y0290282D01*
X0298108Y0290395D01*
X0298028Y0290511D01*
X0297951Y0290629D01*
X0297878Y0290749D01*
X0297807Y0290872D01*
X0297741Y0290996D01*
X0297678Y0291122D01*
X0297618Y0291249D01*
X0297562Y0291378D01*
X0297510Y0291509D01*
X0297461Y0291641D01*
X0297416Y0291775D01*
X0297375Y0291910D01*
X0297338Y0292046D01*
X0297304Y0292182D01*
X0297275Y0292320D01*
X0297249Y0292459D01*
X0297228Y0292598D01*
X0297210Y0292738D01*
X0297196Y0292878D01*
X0297186Y0293018D01*
X0297180Y0293159D01*
X0297178Y0293300D01*
X0297060Y0284639D02*
X0307296Y0284639D01*
X0336016Y0290150D02*
X0337591Y0290150D01*
X0336016Y0290150D02*
X0336016Y0296450D01*
X0337591Y0296450D01*
X0339560Y0301961D02*
X0349796Y0301961D01*
X0351764Y0296450D02*
X0353339Y0296450D01*
X0353339Y0290150D01*
X0351764Y0290150D01*
X0349796Y0284639D02*
X0339560Y0284639D01*
X0339678Y0293300D02*
X0339680Y0293441D01*
X0339686Y0293582D01*
X0339696Y0293722D01*
X0339710Y0293862D01*
X0339728Y0294002D01*
X0339749Y0294141D01*
X0339775Y0294280D01*
X0339804Y0294418D01*
X0339838Y0294554D01*
X0339875Y0294690D01*
X0339916Y0294825D01*
X0339961Y0294959D01*
X0340010Y0295091D01*
X0340062Y0295222D01*
X0340118Y0295351D01*
X0340178Y0295478D01*
X0340241Y0295604D01*
X0340307Y0295728D01*
X0340378Y0295851D01*
X0340451Y0295971D01*
X0340528Y0296089D01*
X0340608Y0296205D01*
X0340692Y0296318D01*
X0340778Y0296429D01*
X0340868Y0296538D01*
X0340961Y0296644D01*
X0341056Y0296747D01*
X0341155Y0296848D01*
X0341256Y0296946D01*
X0341360Y0297041D01*
X0341467Y0297133D01*
X0341576Y0297222D01*
X0341688Y0297307D01*
X0341802Y0297390D01*
X0341918Y0297470D01*
X0342037Y0297546D01*
X0342158Y0297618D01*
X0342280Y0297688D01*
X0342405Y0297753D01*
X0342531Y0297816D01*
X0342659Y0297874D01*
X0342789Y0297929D01*
X0342920Y0297981D01*
X0343053Y0298028D01*
X0343187Y0298072D01*
X0343322Y0298113D01*
X0343458Y0298149D01*
X0343595Y0298181D01*
X0343733Y0298210D01*
X0343871Y0298235D01*
X0344011Y0298255D01*
X0344151Y0298272D01*
X0344291Y0298285D01*
X0344432Y0298294D01*
X0344572Y0298299D01*
X0344713Y0298300D01*
X0344854Y0298297D01*
X0344995Y0298290D01*
X0345135Y0298279D01*
X0345275Y0298264D01*
X0345415Y0298245D01*
X0345554Y0298223D01*
X0345692Y0298196D01*
X0345830Y0298166D01*
X0345966Y0298131D01*
X0346102Y0298093D01*
X0346236Y0298051D01*
X0346370Y0298005D01*
X0346502Y0297956D01*
X0346632Y0297902D01*
X0346761Y0297845D01*
X0346888Y0297785D01*
X0347014Y0297721D01*
X0347137Y0297653D01*
X0347259Y0297582D01*
X0347379Y0297508D01*
X0347496Y0297430D01*
X0347611Y0297349D01*
X0347724Y0297265D01*
X0347835Y0297178D01*
X0347943Y0297087D01*
X0348048Y0296994D01*
X0348151Y0296897D01*
X0348251Y0296798D01*
X0348348Y0296696D01*
X0348442Y0296591D01*
X0348533Y0296484D01*
X0348621Y0296374D01*
X0348706Y0296262D01*
X0348788Y0296147D01*
X0348867Y0296030D01*
X0348942Y0295911D01*
X0349014Y0295790D01*
X0349082Y0295667D01*
X0349147Y0295542D01*
X0349209Y0295415D01*
X0349266Y0295286D01*
X0349321Y0295156D01*
X0349371Y0295025D01*
X0349418Y0294892D01*
X0349461Y0294758D01*
X0349500Y0294622D01*
X0349535Y0294486D01*
X0349567Y0294349D01*
X0349594Y0294211D01*
X0349618Y0294072D01*
X0349638Y0293932D01*
X0349654Y0293792D01*
X0349666Y0293652D01*
X0349674Y0293511D01*
X0349678Y0293370D01*
X0349678Y0293230D01*
X0349674Y0293089D01*
X0349666Y0292948D01*
X0349654Y0292808D01*
X0349638Y0292668D01*
X0349618Y0292528D01*
X0349594Y0292389D01*
X0349567Y0292251D01*
X0349535Y0292114D01*
X0349500Y0291978D01*
X0349461Y0291842D01*
X0349418Y0291708D01*
X0349371Y0291575D01*
X0349321Y0291444D01*
X0349266Y0291314D01*
X0349209Y0291185D01*
X0349147Y0291058D01*
X0349082Y0290933D01*
X0349014Y0290810D01*
X0348942Y0290689D01*
X0348867Y0290570D01*
X0348788Y0290453D01*
X0348706Y0290338D01*
X0348621Y0290226D01*
X0348533Y0290116D01*
X0348442Y0290009D01*
X0348348Y0289904D01*
X0348251Y0289802D01*
X0348151Y0289703D01*
X0348048Y0289606D01*
X0347943Y0289513D01*
X0347835Y0289422D01*
X0347724Y0289335D01*
X0347611Y0289251D01*
X0347496Y0289170D01*
X0347379Y0289092D01*
X0347259Y0289018D01*
X0347137Y0288947D01*
X0347014Y0288879D01*
X0346888Y0288815D01*
X0346761Y0288755D01*
X0346632Y0288698D01*
X0346502Y0288644D01*
X0346370Y0288595D01*
X0346236Y0288549D01*
X0346102Y0288507D01*
X0345966Y0288469D01*
X0345830Y0288434D01*
X0345692Y0288404D01*
X0345554Y0288377D01*
X0345415Y0288355D01*
X0345275Y0288336D01*
X0345135Y0288321D01*
X0344995Y0288310D01*
X0344854Y0288303D01*
X0344713Y0288300D01*
X0344572Y0288301D01*
X0344432Y0288306D01*
X0344291Y0288315D01*
X0344151Y0288328D01*
X0344011Y0288345D01*
X0343871Y0288365D01*
X0343733Y0288390D01*
X0343595Y0288419D01*
X0343458Y0288451D01*
X0343322Y0288487D01*
X0343187Y0288528D01*
X0343053Y0288572D01*
X0342920Y0288619D01*
X0342789Y0288671D01*
X0342659Y0288726D01*
X0342531Y0288784D01*
X0342405Y0288847D01*
X0342280Y0288912D01*
X0342158Y0288982D01*
X0342037Y0289054D01*
X0341918Y0289130D01*
X0341802Y0289210D01*
X0341688Y0289293D01*
X0341576Y0289378D01*
X0341467Y0289467D01*
X0341360Y0289559D01*
X0341256Y0289654D01*
X0341155Y0289752D01*
X0341056Y0289853D01*
X0340961Y0289956D01*
X0340868Y0290062D01*
X0340778Y0290171D01*
X0340692Y0290282D01*
X0340608Y0290395D01*
X0340528Y0290511D01*
X0340451Y0290629D01*
X0340378Y0290749D01*
X0340307Y0290872D01*
X0340241Y0290996D01*
X0340178Y0291122D01*
X0340118Y0291249D01*
X0340062Y0291378D01*
X0340010Y0291509D01*
X0339961Y0291641D01*
X0339916Y0291775D01*
X0339875Y0291910D01*
X0339838Y0292046D01*
X0339804Y0292182D01*
X0339775Y0292320D01*
X0339749Y0292459D01*
X0339728Y0292598D01*
X0339710Y0292738D01*
X0339696Y0292878D01*
X0339686Y0293018D01*
X0339680Y0293159D01*
X0339678Y0293300D01*
X0171716Y0050408D02*
X0170182Y0048873D01*
X0167113Y0051943D01*
X0165578Y0050408D01*
X0168647Y0038873D02*
X0168647Y0032735D01*
X0165578Y0035804D02*
X0171716Y0035804D01*
X0174216Y0024804D02*
X0168078Y0024804D01*
D15*
X0046897Y0031900D02*
X0046513Y0032284D01*
X0046897Y0031900D02*
X0047664Y0031900D01*
X0048048Y0032284D01*
X0048048Y0032667D01*
X0047664Y0033051D01*
X0047280Y0033051D01*
X0047664Y0033051D02*
X0048048Y0033435D01*
X0048048Y0033818D01*
X0047664Y0034202D01*
X0046897Y0034202D01*
X0046513Y0033818D01*
X0048815Y0032284D02*
X0049199Y0032284D01*
X0049199Y0031900D01*
X0048815Y0031900D01*
X0048815Y0032284D01*
X0049966Y0032284D02*
X0050350Y0031900D01*
X0051117Y0031900D01*
X0051501Y0032284D01*
X0051501Y0032667D01*
X0051117Y0033051D01*
X0050733Y0033051D01*
X0051117Y0033051D02*
X0051501Y0033435D01*
X0051501Y0033818D01*
X0051117Y0034202D01*
X0050350Y0034202D01*
X0049966Y0033818D01*
X0052268Y0034202D02*
X0052268Y0032667D01*
X0053035Y0031900D01*
X0053803Y0032667D01*
X0053803Y0034202D01*
X0056872Y0034202D02*
X0056872Y0031900D01*
X0056872Y0032667D02*
X0058023Y0032667D01*
X0058407Y0033051D01*
X0058407Y0033818D01*
X0058023Y0034202D01*
X0056872Y0034202D01*
X0059174Y0034202D02*
X0059174Y0031900D01*
X0059941Y0032667D01*
X0060709Y0031900D01*
X0060709Y0034202D01*
X0061476Y0034202D02*
X0062627Y0034202D01*
X0063010Y0033818D01*
X0063010Y0033051D01*
X0062627Y0032667D01*
X0061476Y0032667D01*
X0061476Y0031900D02*
X0061476Y0034202D01*
X0062243Y0032667D02*
X0063010Y0031900D01*
X0062627Y0029702D02*
X0061476Y0028551D01*
X0063011Y0028551D01*
X0062627Y0027400D02*
X0062627Y0029702D01*
X0060709Y0029702D02*
X0059941Y0029318D01*
X0059174Y0028551D01*
X0060325Y0028551D01*
X0060709Y0028167D01*
X0060709Y0027784D01*
X0060325Y0027400D01*
X0059558Y0027400D01*
X0059174Y0027784D01*
X0059174Y0028551D01*
X0058407Y0027784D02*
X0058407Y0029702D01*
X0056872Y0029702D02*
X0056872Y0027784D01*
X0057256Y0027400D01*
X0058023Y0027400D01*
X0058407Y0027784D01*
X0058023Y0024702D02*
X0057256Y0024702D01*
X0056872Y0024318D01*
X0056872Y0022784D01*
X0057256Y0022400D01*
X0058023Y0022400D01*
X0058407Y0022784D01*
X0058407Y0023551D01*
X0057639Y0023551D01*
X0058407Y0024318D02*
X0058023Y0024702D01*
X0059174Y0024702D02*
X0060709Y0022400D01*
X0060709Y0024702D01*
X0061476Y0024702D02*
X0062627Y0024702D01*
X0063011Y0024318D01*
X0063011Y0022784D01*
X0062627Y0022400D01*
X0061476Y0022400D01*
X0061476Y0024702D01*
X0059174Y0024702D02*
X0059174Y0022400D01*
X0059558Y0036900D02*
X0059174Y0037284D01*
X0059174Y0038051D01*
X0060325Y0038051D01*
X0060709Y0037667D01*
X0060709Y0037284D01*
X0060325Y0036900D01*
X0059558Y0036900D01*
X0059174Y0038051D02*
X0059941Y0038818D01*
X0060709Y0039202D01*
X0061476Y0039202D02*
X0061476Y0038051D01*
X0062243Y0038435D01*
X0062627Y0038435D01*
X0063011Y0038051D01*
X0063011Y0037284D01*
X0062627Y0036900D01*
X0061860Y0036900D01*
X0061476Y0037284D01*
X0061476Y0039202D02*
X0063011Y0039202D01*
X0062627Y0042400D02*
X0061859Y0042400D01*
X0061476Y0042784D01*
X0061859Y0043551D02*
X0062627Y0043551D01*
X0063010Y0043167D01*
X0063010Y0042784D01*
X0062627Y0042400D01*
X0061859Y0043551D02*
X0061476Y0043935D01*
X0061476Y0044318D01*
X0061859Y0044702D01*
X0062627Y0044702D01*
X0063010Y0044318D01*
X0060708Y0042400D02*
X0059174Y0042400D01*
X0059174Y0044702D01*
X0058407Y0043935D02*
X0058407Y0042400D01*
X0058407Y0043551D02*
X0056872Y0043551D01*
X0056872Y0043935D02*
X0057639Y0044702D01*
X0058407Y0043935D01*
X0056872Y0043935D02*
X0056872Y0042400D01*
X0056105Y0042400D02*
X0056105Y0044702D01*
X0054570Y0044702D02*
X0056105Y0042400D01*
X0054570Y0042400D02*
X0054570Y0044702D01*
X0053803Y0044318D02*
X0053419Y0044702D01*
X0052652Y0044702D01*
X0052268Y0044318D01*
X0052268Y0042784D01*
X0052652Y0042400D01*
X0053419Y0042400D01*
X0053803Y0042784D01*
X0053803Y0043551D01*
X0053035Y0043551D01*
X0051501Y0044702D02*
X0050733Y0044702D01*
X0051117Y0044702D02*
X0051117Y0042400D01*
X0050733Y0042400D02*
X0051501Y0042400D01*
X0049966Y0042784D02*
X0049582Y0042400D01*
X0048815Y0042400D01*
X0048431Y0042784D01*
X0048815Y0043551D02*
X0049582Y0043551D01*
X0049966Y0043167D01*
X0049966Y0042784D01*
X0048815Y0043551D02*
X0048431Y0043935D01*
X0048431Y0044318D01*
X0048815Y0044702D01*
X0049582Y0044702D01*
X0049966Y0044318D01*
X0045362Y0044318D02*
X0044978Y0044702D01*
X0044211Y0044702D01*
X0043827Y0044318D01*
X0043827Y0042784D01*
X0044211Y0042400D01*
X0044978Y0042400D01*
X0045362Y0042784D01*
X0043060Y0042784D02*
X0043060Y0044318D01*
X0042676Y0044702D01*
X0041526Y0044702D01*
X0041526Y0042400D01*
X0042676Y0042400D01*
X0043060Y0042784D01*
X0040758Y0042400D02*
X0040758Y0043935D01*
X0039991Y0044702D01*
X0039224Y0043935D01*
X0039224Y0042400D01*
X0039224Y0043551D02*
X0040758Y0043551D01*
X0056872Y0047784D02*
X0057256Y0047400D01*
X0058023Y0047400D01*
X0058407Y0047784D01*
X0058407Y0049702D01*
X0059174Y0049702D02*
X0059174Y0048551D01*
X0059941Y0048935D01*
X0060325Y0048935D01*
X0060709Y0048551D01*
X0060709Y0047784D01*
X0060325Y0047400D01*
X0059558Y0047400D01*
X0059174Y0047784D01*
X0059174Y0049702D02*
X0060709Y0049702D01*
X0061476Y0049318D02*
X0061860Y0049702D01*
X0062627Y0049702D01*
X0063011Y0049318D01*
X0061476Y0047784D01*
X0061860Y0047400D01*
X0062627Y0047400D01*
X0063011Y0047784D01*
X0063011Y0049318D01*
X0061476Y0049318D02*
X0061476Y0047784D01*
X0056872Y0047784D02*
X0056872Y0049702D01*
X0056872Y0039202D02*
X0056872Y0037284D01*
X0057256Y0036900D01*
X0058023Y0036900D01*
X0058407Y0037284D01*
X0058407Y0039202D01*
X0068278Y0050400D02*
X0068278Y0051601D01*
X0068878Y0052202D01*
X0069479Y0051601D01*
X0069479Y0050400D01*
X0070119Y0050700D02*
X0071320Y0051901D01*
X0071320Y0050700D01*
X0071020Y0050400D01*
X0070420Y0050400D01*
X0070119Y0050700D01*
X0070119Y0051901D01*
X0070420Y0052202D01*
X0071020Y0052202D01*
X0071320Y0051901D01*
X0069479Y0051301D02*
X0068278Y0051301D01*
X0078278Y0051301D02*
X0079479Y0051301D01*
X0079479Y0051601D02*
X0079479Y0050400D01*
X0080119Y0050400D02*
X0081320Y0050400D01*
X0080720Y0050400D02*
X0080720Y0052202D01*
X0080119Y0051601D01*
X0079479Y0051601D02*
X0078878Y0052202D01*
X0078278Y0051601D01*
X0078278Y0050400D01*
X0088778Y0050400D02*
X0088778Y0051601D01*
X0089378Y0052202D01*
X0089979Y0051601D01*
X0089979Y0050400D01*
X0090619Y0050400D02*
X0091820Y0051601D01*
X0091820Y0051901D01*
X0091520Y0052202D01*
X0090920Y0052202D01*
X0090619Y0051901D01*
X0089979Y0051301D02*
X0088778Y0051301D01*
X0090619Y0050400D02*
X0091820Y0050400D01*
X0098278Y0050400D02*
X0098278Y0051601D01*
X0098878Y0052202D01*
X0099479Y0051601D01*
X0099479Y0050400D01*
X0100119Y0050700D02*
X0100420Y0050400D01*
X0101020Y0050400D01*
X0101320Y0050700D01*
X0101320Y0051001D01*
X0101020Y0051301D01*
X0100720Y0051301D01*
X0101020Y0051301D02*
X0101320Y0051601D01*
X0101320Y0051901D01*
X0101020Y0052202D01*
X0100420Y0052202D01*
X0100119Y0051901D01*
X0099479Y0051301D02*
X0098278Y0051301D01*
X0098013Y0054900D02*
X0098397Y0055284D01*
X0098397Y0056818D01*
X0098013Y0057202D01*
X0097246Y0057202D01*
X0096862Y0056818D01*
X0096862Y0055284D01*
X0097246Y0054900D01*
X0098013Y0054900D01*
X0099164Y0054900D02*
X0099164Y0057202D01*
X0100315Y0057202D01*
X0100699Y0056818D01*
X0100699Y0056051D01*
X0100315Y0055667D01*
X0099164Y0055667D01*
X0101466Y0057202D02*
X0103001Y0057202D01*
X0102233Y0057202D02*
X0102233Y0054900D01*
X0103768Y0055284D02*
X0104152Y0054900D01*
X0104919Y0054900D01*
X0105303Y0055284D01*
X0105303Y0056818D01*
X0104919Y0057202D01*
X0104152Y0057202D01*
X0103768Y0056818D01*
X0103768Y0055284D01*
X0106070Y0054516D02*
X0107605Y0054516D01*
X0108372Y0055284D02*
X0108756Y0054900D01*
X0109523Y0054900D01*
X0109907Y0055284D01*
X0109907Y0056818D01*
X0109523Y0057202D01*
X0108756Y0057202D01*
X0108372Y0056818D01*
X0108372Y0055284D01*
X0110674Y0055284D02*
X0111058Y0054900D01*
X0111825Y0054900D01*
X0112209Y0055284D01*
X0112209Y0057202D01*
X0112976Y0057202D02*
X0114510Y0057202D01*
X0113743Y0057202D02*
X0113743Y0054900D01*
X0110674Y0055284D02*
X0110674Y0057202D01*
X0111020Y0052202D02*
X0110119Y0051301D01*
X0111320Y0051301D01*
X0111020Y0050400D02*
X0111020Y0052202D01*
X0109479Y0051601D02*
X0108878Y0052202D01*
X0108278Y0051601D01*
X0108278Y0050400D01*
X0108278Y0051301D02*
X0109479Y0051301D01*
X0109479Y0051601D02*
X0109479Y0050400D01*
X0118278Y0050400D02*
X0118278Y0051601D01*
X0118878Y0052202D01*
X0119479Y0051601D01*
X0119479Y0050400D01*
X0120119Y0050700D02*
X0120420Y0050400D01*
X0121020Y0050400D01*
X0121320Y0050700D01*
X0121320Y0051301D01*
X0121020Y0051601D01*
X0120720Y0051601D01*
X0120119Y0051301D01*
X0120119Y0052202D01*
X0121320Y0052202D01*
X0119479Y0051301D02*
X0118278Y0051301D01*
X0128778Y0051301D02*
X0129979Y0051301D01*
X0129979Y0051601D02*
X0129979Y0050400D01*
X0130619Y0050700D02*
X0130920Y0050400D01*
X0131520Y0050400D01*
X0131820Y0050700D01*
X0131820Y0051001D01*
X0131520Y0051301D01*
X0130619Y0051301D01*
X0130619Y0050700D01*
X0130619Y0051301D02*
X0131220Y0051901D01*
X0131820Y0052202D01*
X0129979Y0051601D02*
X0129378Y0052202D01*
X0128778Y0051601D01*
X0128778Y0050400D01*
X0138278Y0050400D02*
X0138278Y0051601D01*
X0138878Y0052202D01*
X0139479Y0051601D01*
X0139479Y0050400D01*
X0140119Y0050400D02*
X0140119Y0050700D01*
X0141320Y0051901D01*
X0141320Y0052202D01*
X0140119Y0052202D01*
X0139479Y0051301D02*
X0138278Y0051301D01*
X0148278Y0051301D02*
X0149479Y0051301D01*
X0149479Y0051601D02*
X0149479Y0050400D01*
X0150119Y0050700D02*
X0150119Y0051001D01*
X0150420Y0051301D01*
X0151020Y0051301D01*
X0151320Y0051001D01*
X0151320Y0050700D01*
X0151020Y0050400D01*
X0150420Y0050400D01*
X0150119Y0050700D01*
X0150420Y0051301D02*
X0150119Y0051601D01*
X0150119Y0051901D01*
X0150420Y0052202D01*
X0151020Y0052202D01*
X0151320Y0051901D01*
X0151320Y0051601D01*
X0151020Y0051301D01*
X0149479Y0051601D02*
X0148878Y0052202D01*
X0148278Y0051601D01*
X0148278Y0050400D01*
X0158278Y0050400D02*
X0158278Y0051601D01*
X0158878Y0052202D01*
X0159479Y0051601D01*
X0159479Y0050400D01*
X0160119Y0050700D02*
X0160420Y0050400D01*
X0161020Y0050400D01*
X0161320Y0050700D01*
X0161320Y0051901D01*
X0161020Y0052202D01*
X0160420Y0052202D01*
X0160119Y0051901D01*
X0160119Y0051601D01*
X0160420Y0051301D01*
X0161320Y0051301D01*
X0159479Y0051301D02*
X0158278Y0051301D01*
X0107671Y0080867D02*
X0107671Y0081801D01*
X0106737Y0081801D01*
X0107671Y0080867D02*
X0107204Y0080400D01*
X0106270Y0080400D01*
X0105803Y0080867D01*
X0105803Y0082735D01*
X0106270Y0083202D01*
X0107204Y0083202D01*
X0107671Y0082735D01*
X0104908Y0083202D02*
X0104908Y0081334D01*
X0103974Y0080400D01*
X0103040Y0081334D01*
X0103040Y0083202D01*
X0102146Y0083202D02*
X0102146Y0080400D01*
X0102146Y0081801D02*
X0100278Y0081801D01*
X0100278Y0080400D02*
X0100278Y0083202D01*
X0099685Y0078669D02*
X0099685Y0078202D01*
X0099685Y0077268D02*
X0099218Y0077268D01*
X0099685Y0077268D02*
X0099685Y0075400D01*
X0099218Y0075400D02*
X0100152Y0075400D01*
X0101060Y0075867D02*
X0101527Y0075400D01*
X0102461Y0075400D01*
X0102928Y0075867D01*
X0102928Y0076801D01*
X0102461Y0077268D01*
X0101527Y0077268D01*
X0101060Y0076801D01*
X0101060Y0075867D01*
X0098311Y0075400D02*
X0097844Y0075867D01*
X0097844Y0077735D01*
X0097377Y0077268D02*
X0098311Y0077268D01*
X0096483Y0076801D02*
X0096483Y0075400D01*
X0095081Y0075400D01*
X0094614Y0075867D01*
X0095081Y0076334D01*
X0096483Y0076334D01*
X0096483Y0076801D02*
X0096016Y0077268D01*
X0095081Y0077268D01*
X0093240Y0078202D02*
X0093240Y0075400D01*
X0092773Y0075400D02*
X0093707Y0075400D01*
X0091879Y0075867D02*
X0091879Y0076801D01*
X0091412Y0077268D01*
X0090477Y0077268D01*
X0090010Y0076801D01*
X0090010Y0075867D01*
X0090477Y0075400D01*
X0091412Y0075400D01*
X0091879Y0075867D01*
X0092773Y0078202D02*
X0093240Y0078202D01*
X0089116Y0077268D02*
X0087715Y0077268D01*
X0087248Y0076801D01*
X0087715Y0076334D01*
X0088649Y0076334D01*
X0089116Y0075867D01*
X0088649Y0075400D01*
X0087248Y0075400D01*
X0086341Y0075400D02*
X0085406Y0075400D01*
X0085874Y0075400D02*
X0085874Y0077268D01*
X0085406Y0077268D01*
X0084512Y0076801D02*
X0084045Y0077268D01*
X0083111Y0077268D01*
X0082644Y0076801D01*
X0082644Y0075867D01*
X0083111Y0075400D01*
X0084045Y0075400D01*
X0084512Y0075867D01*
X0084512Y0076801D01*
X0085874Y0078202D02*
X0085874Y0078669D01*
X0081737Y0077268D02*
X0080803Y0077268D01*
X0081270Y0077735D02*
X0081270Y0075867D01*
X0081737Y0075400D01*
X0079908Y0075867D02*
X0079441Y0075400D01*
X0078040Y0075400D01*
X0078040Y0074466D02*
X0078040Y0077268D01*
X0079441Y0077268D01*
X0079908Y0076801D01*
X0079908Y0075867D01*
X0077146Y0075867D02*
X0077146Y0077735D01*
X0076679Y0078202D01*
X0075745Y0078202D01*
X0075278Y0077735D01*
X0075278Y0075867D01*
X0075745Y0075400D01*
X0076679Y0075400D01*
X0077146Y0075867D01*
X0077204Y0080400D02*
X0077671Y0080867D01*
X0077671Y0082735D01*
X0077204Y0083202D01*
X0075803Y0083202D01*
X0075803Y0080400D01*
X0077204Y0080400D01*
X0074908Y0080400D02*
X0074908Y0083202D01*
X0073040Y0083202D02*
X0074908Y0080400D01*
X0073040Y0080400D02*
X0073040Y0083202D01*
X0072146Y0082735D02*
X0071679Y0083202D01*
X0070745Y0083202D01*
X0070278Y0082735D01*
X0070278Y0080867D01*
X0070745Y0080400D01*
X0071679Y0080400D01*
X0072146Y0080867D01*
X0072146Y0081801D01*
X0071212Y0081801D01*
X0071212Y0090400D02*
X0070278Y0090400D01*
X0070745Y0090400D02*
X0070745Y0093202D01*
X0070278Y0093202D02*
X0071212Y0093202D01*
X0072119Y0093202D02*
X0073988Y0090400D01*
X0073988Y0093202D01*
X0074882Y0092735D02*
X0075349Y0093202D01*
X0076283Y0093202D01*
X0076750Y0092735D01*
X0076750Y0092268D01*
X0074882Y0090400D01*
X0076750Y0090400D01*
X0072119Y0090400D02*
X0072119Y0093202D01*
X0072119Y0100400D02*
X0072119Y0103202D01*
X0073988Y0100400D01*
X0073988Y0103202D01*
X0074882Y0102268D02*
X0075816Y0103202D01*
X0075816Y0100400D01*
X0074882Y0100400D02*
X0076750Y0100400D01*
X0071212Y0100400D02*
X0070278Y0100400D01*
X0070745Y0100400D02*
X0070745Y0103202D01*
X0070278Y0103202D02*
X0071212Y0103202D01*
X0070278Y0110400D02*
X0070278Y0113202D01*
X0072146Y0110400D01*
X0072146Y0113202D01*
X0073040Y0112735D02*
X0073040Y0110867D01*
X0073507Y0110400D01*
X0074441Y0110400D01*
X0074908Y0110867D01*
X0074908Y0112735D02*
X0074441Y0113202D01*
X0073507Y0113202D01*
X0073040Y0112735D01*
X0075278Y0115400D02*
X0076679Y0115400D01*
X0077146Y0115867D01*
X0077146Y0116334D01*
X0076679Y0116801D01*
X0075278Y0116801D01*
X0075278Y0115400D02*
X0075278Y0118202D01*
X0076679Y0118202D01*
X0077146Y0117735D01*
X0077146Y0117268D01*
X0076679Y0116801D01*
X0078040Y0115867D02*
X0078507Y0115400D01*
X0079441Y0115400D01*
X0079908Y0115867D01*
X0079908Y0117735D01*
X0079441Y0118202D01*
X0078507Y0118202D01*
X0078040Y0117735D01*
X0078040Y0115867D01*
X0080803Y0115400D02*
X0080803Y0118202D01*
X0082204Y0118202D01*
X0082671Y0117735D01*
X0082671Y0117268D01*
X0082204Y0116801D01*
X0080803Y0116801D01*
X0082204Y0116801D02*
X0082671Y0116334D01*
X0082671Y0115867D01*
X0082204Y0115400D01*
X0080803Y0115400D01*
X0083565Y0116801D02*
X0085433Y0116801D01*
X0086327Y0115867D02*
X0088196Y0117735D01*
X0088196Y0115867D01*
X0087728Y0115400D01*
X0086794Y0115400D01*
X0086327Y0115867D01*
X0086327Y0117735D01*
X0086794Y0118202D01*
X0087728Y0118202D01*
X0088196Y0117735D01*
X0089090Y0117735D02*
X0089090Y0117268D01*
X0089557Y0116801D01*
X0090958Y0116801D01*
X0090958Y0115867D02*
X0090958Y0117735D01*
X0090491Y0118202D01*
X0089557Y0118202D01*
X0089090Y0117735D01*
X0089090Y0115867D02*
X0089557Y0115400D01*
X0090491Y0115400D01*
X0090958Y0115867D01*
X0091852Y0115400D02*
X0093720Y0115400D01*
X0094614Y0115400D02*
X0096483Y0115400D01*
X0095548Y0115400D02*
X0095548Y0118202D01*
X0094614Y0117268D01*
X0092786Y0118202D02*
X0092786Y0115400D01*
X0091852Y0117268D02*
X0092786Y0118202D01*
X0097377Y0117735D02*
X0097377Y0117268D01*
X0097844Y0116801D01*
X0098778Y0116801D01*
X0099245Y0116334D01*
X0099245Y0115867D01*
X0098778Y0115400D01*
X0097844Y0115400D01*
X0097377Y0115867D01*
X0097377Y0116334D01*
X0097844Y0116801D01*
X0098778Y0116801D02*
X0099245Y0117268D01*
X0099245Y0117735D01*
X0098778Y0118202D01*
X0097844Y0118202D01*
X0097377Y0117735D01*
X0102901Y0118202D02*
X0102901Y0115400D01*
X0104303Y0115400D01*
X0104770Y0115867D01*
X0104770Y0116334D01*
X0104303Y0116801D01*
X0102901Y0116801D01*
X0102901Y0118202D02*
X0104303Y0118202D01*
X0104770Y0117735D01*
X0104770Y0117268D01*
X0104303Y0116801D01*
X0105664Y0116334D02*
X0106598Y0117268D01*
X0107065Y0117268D01*
X0107966Y0116801D02*
X0108433Y0117268D01*
X0109367Y0117268D01*
X0109834Y0116801D01*
X0109834Y0116334D01*
X0107966Y0116334D01*
X0107966Y0115867D02*
X0107966Y0116801D01*
X0107966Y0115867D02*
X0108433Y0115400D01*
X0109367Y0115400D01*
X0110728Y0115867D02*
X0111195Y0116334D01*
X0112596Y0116334D01*
X0112596Y0116801D02*
X0112596Y0115400D01*
X0111195Y0115400D01*
X0110728Y0115867D01*
X0111195Y0117268D02*
X0112129Y0117268D01*
X0112596Y0116801D01*
X0113490Y0116334D02*
X0114892Y0117268D01*
X0115792Y0116801D02*
X0115792Y0115867D01*
X0116259Y0115400D01*
X0117194Y0115400D01*
X0117661Y0115867D01*
X0117661Y0116801D01*
X0117194Y0117268D01*
X0116259Y0117268D01*
X0115792Y0116801D01*
X0114892Y0115400D02*
X0113490Y0116334D01*
X0113490Y0115400D02*
X0113490Y0118202D01*
X0118555Y0117268D02*
X0118555Y0115867D01*
X0119022Y0115400D01*
X0120423Y0115400D01*
X0120423Y0117268D01*
X0121317Y0117268D02*
X0122251Y0117268D01*
X0121784Y0117735D02*
X0121784Y0115867D01*
X0122251Y0115400D01*
X0110433Y0110400D02*
X0108565Y0110400D01*
X0109499Y0110400D02*
X0109499Y0113202D01*
X0108565Y0112268D01*
X0107671Y0113202D02*
X0105803Y0113202D01*
X0104908Y0113202D02*
X0104908Y0110867D01*
X0104441Y0110400D01*
X0103507Y0110400D01*
X0103040Y0110867D01*
X0103040Y0113202D01*
X0102146Y0112735D02*
X0101679Y0113202D01*
X0100745Y0113202D01*
X0100278Y0112735D01*
X0100278Y0110867D01*
X0100745Y0110400D01*
X0101679Y0110400D01*
X0102146Y0110867D01*
X0102146Y0112735D01*
X0105664Y0115400D02*
X0105664Y0117268D01*
X0106737Y0113202D02*
X0106737Y0110400D01*
X0104908Y0103202D02*
X0104908Y0101334D01*
X0103974Y0100400D01*
X0103040Y0101334D01*
X0103040Y0103202D01*
X0102146Y0103202D02*
X0102146Y0100400D01*
X0102146Y0101801D02*
X0100278Y0101801D01*
X0100278Y0100400D02*
X0100278Y0103202D01*
X0100745Y0093202D02*
X0100278Y0092735D01*
X0100278Y0090867D01*
X0100745Y0090400D01*
X0101679Y0090400D01*
X0102146Y0090867D01*
X0102146Y0092735D01*
X0101679Y0093202D01*
X0100745Y0093202D01*
X0103040Y0093202D02*
X0103040Y0090867D01*
X0103507Y0090400D01*
X0104441Y0090400D01*
X0104908Y0090867D01*
X0104908Y0093202D01*
X0105803Y0093202D02*
X0107671Y0093202D01*
X0106737Y0093202D02*
X0106737Y0090400D01*
X0108565Y0090400D02*
X0110433Y0092268D01*
X0110433Y0092735D01*
X0109966Y0093202D01*
X0109032Y0093202D01*
X0108565Y0092735D01*
X0108565Y0090400D02*
X0110433Y0090400D01*
X0105223Y0077268D02*
X0105690Y0076801D01*
X0105690Y0075400D01*
X0103822Y0075400D02*
X0103822Y0077268D01*
X0105223Y0077268D01*
X0110278Y0172900D02*
X0110278Y0174435D01*
X0111045Y0175202D01*
X0111812Y0174435D01*
X0111812Y0172900D01*
X0112580Y0172900D02*
X0113731Y0172900D01*
X0114114Y0173284D01*
X0114114Y0174818D01*
X0113731Y0175202D01*
X0112580Y0175202D01*
X0112580Y0172900D01*
X0111812Y0174051D02*
X0110278Y0174051D01*
X0114882Y0175202D02*
X0115649Y0175202D01*
X0115265Y0175202D02*
X0115265Y0172900D01*
X0114882Y0172900D02*
X0115649Y0172900D01*
X0116416Y0172516D02*
X0117951Y0172516D01*
X0119486Y0172900D02*
X0119486Y0175202D01*
X0120253Y0175202D02*
X0118718Y0175202D01*
X0121020Y0175202D02*
X0121020Y0172900D01*
X0122555Y0172900D01*
X0123322Y0173284D02*
X0123706Y0172900D01*
X0124473Y0172900D01*
X0124857Y0173284D01*
X0124857Y0173667D01*
X0124473Y0174051D01*
X0123706Y0174051D01*
X0123322Y0174435D01*
X0123322Y0174818D01*
X0123706Y0175202D01*
X0124473Y0175202D01*
X0124857Y0174818D01*
X0125624Y0175202D02*
X0127159Y0175202D01*
X0126392Y0175202D02*
X0126392Y0172900D01*
X0122555Y0175202D02*
X0121020Y0175202D01*
X0121020Y0174051D02*
X0121788Y0174051D01*
X0145778Y0174051D02*
X0147313Y0174051D01*
X0147313Y0174435D02*
X0147313Y0172900D01*
X0148080Y0172900D02*
X0149231Y0172900D01*
X0149614Y0173284D01*
X0149614Y0174818D01*
X0149231Y0175202D01*
X0148080Y0175202D01*
X0148080Y0172900D01*
X0147313Y0174435D02*
X0146545Y0175202D01*
X0145778Y0174435D01*
X0145778Y0172900D01*
X0150382Y0173284D02*
X0150765Y0172900D01*
X0151533Y0172900D01*
X0151916Y0173284D01*
X0151916Y0174818D01*
X0151533Y0175202D01*
X0150765Y0175202D01*
X0150382Y0174818D01*
X0150382Y0173284D01*
X0152684Y0172516D02*
X0154218Y0172516D01*
X0155753Y0172900D02*
X0155753Y0175202D01*
X0154986Y0175202D02*
X0156520Y0175202D01*
X0157288Y0175202D02*
X0157288Y0172900D01*
X0158822Y0172900D01*
X0159590Y0173284D02*
X0159973Y0172900D01*
X0160741Y0172900D01*
X0161124Y0173284D01*
X0161124Y0173667D01*
X0160741Y0174051D01*
X0159973Y0174051D01*
X0159590Y0174435D01*
X0159590Y0174818D01*
X0159973Y0175202D01*
X0160741Y0175202D01*
X0161124Y0174818D01*
X0161892Y0175202D02*
X0163426Y0175202D01*
X0162659Y0175202D02*
X0162659Y0172900D01*
X0158822Y0175202D02*
X0157288Y0175202D01*
X0157288Y0174051D02*
X0158055Y0174051D01*
X0180276Y0187900D02*
X0180276Y0189051D01*
X0180660Y0189435D01*
X0181427Y0189435D01*
X0181811Y0189051D01*
X0181811Y0187900D01*
X0182578Y0187900D02*
X0180276Y0187900D01*
X0180660Y0190202D02*
X0180276Y0190586D01*
X0180276Y0191353D01*
X0180660Y0191737D01*
X0181043Y0191737D01*
X0182578Y0190202D01*
X0182578Y0191737D01*
X0182194Y0192504D02*
X0182578Y0192888D01*
X0182578Y0193655D01*
X0182194Y0194039D01*
X0181811Y0194039D01*
X0181427Y0193655D01*
X0181427Y0192888D01*
X0181043Y0192504D01*
X0180660Y0192504D01*
X0180276Y0192888D01*
X0180276Y0193655D01*
X0180660Y0194039D01*
X0181043Y0194806D02*
X0181043Y0195190D01*
X0182578Y0195190D01*
X0182578Y0195573D02*
X0182578Y0194806D01*
X0182194Y0196341D02*
X0182578Y0196724D01*
X0182578Y0197875D01*
X0182962Y0197875D02*
X0181043Y0197875D01*
X0181043Y0196724D01*
X0181427Y0196341D01*
X0182194Y0196341D01*
X0183345Y0197108D02*
X0183345Y0197491D01*
X0182962Y0197875D01*
X0182194Y0198900D02*
X0182578Y0199284D01*
X0182578Y0200051D01*
X0182194Y0200435D01*
X0181811Y0200435D01*
X0181427Y0200051D01*
X0181427Y0199667D01*
X0181427Y0200051D02*
X0181043Y0200435D01*
X0180660Y0200435D01*
X0180276Y0200051D01*
X0180276Y0199284D01*
X0180660Y0198900D01*
X0182194Y0201202D02*
X0182194Y0201586D01*
X0182578Y0201586D01*
X0182578Y0201202D01*
X0182194Y0201202D01*
X0182194Y0202353D02*
X0182578Y0202737D01*
X0182578Y0203504D01*
X0182194Y0203888D01*
X0181811Y0203888D01*
X0181427Y0203504D01*
X0181427Y0203120D01*
X0181427Y0203504D02*
X0181043Y0203888D01*
X0180660Y0203888D01*
X0180276Y0203504D01*
X0180276Y0202737D01*
X0180660Y0202353D01*
X0180660Y0207900D02*
X0182194Y0207900D01*
X0182578Y0208284D01*
X0182578Y0209051D01*
X0182194Y0209435D01*
X0181427Y0209435D01*
X0181427Y0208667D01*
X0180660Y0207900D02*
X0180276Y0208284D01*
X0180276Y0209051D01*
X0180660Y0209435D01*
X0180276Y0210202D02*
X0182578Y0211737D01*
X0180276Y0211737D01*
X0180276Y0212504D02*
X0180276Y0213655D01*
X0180660Y0214039D01*
X0182194Y0214039D01*
X0182578Y0213655D01*
X0182578Y0212504D01*
X0180276Y0212504D01*
X0180276Y0210202D02*
X0182578Y0210202D01*
X0180276Y0195190D02*
X0179892Y0195190D01*
X0238778Y0264900D02*
X0238778Y0267202D01*
X0239929Y0267202D01*
X0240312Y0266818D01*
X0240312Y0266051D01*
X0239929Y0265667D01*
X0238778Y0265667D01*
X0241080Y0264900D02*
X0242614Y0266435D01*
X0242614Y0266818D01*
X0242231Y0267202D01*
X0241463Y0267202D01*
X0241080Y0266818D01*
X0241080Y0264900D02*
X0242614Y0264900D01*
X0243382Y0264516D02*
X0244916Y0264516D01*
X0245684Y0264900D02*
X0245684Y0267202D01*
X0246835Y0267202D01*
X0247218Y0266818D01*
X0247218Y0266051D01*
X0246835Y0265667D01*
X0245684Y0265667D01*
X0247986Y0264900D02*
X0247986Y0267202D01*
X0249520Y0267202D02*
X0249520Y0264900D01*
X0248753Y0265667D01*
X0247986Y0264900D01*
X0250288Y0264900D02*
X0250288Y0267202D01*
X0251439Y0267202D01*
X0251822Y0266818D01*
X0251822Y0266051D01*
X0251439Y0265667D01*
X0250288Y0265667D01*
X0251055Y0265667D02*
X0251822Y0264900D01*
X0267778Y0264667D02*
X0268929Y0264667D01*
X0269313Y0265051D01*
X0269313Y0265818D01*
X0268929Y0266202D01*
X0267778Y0266202D01*
X0267778Y0263900D01*
X0270080Y0263900D02*
X0271614Y0265435D01*
X0271614Y0265818D01*
X0271231Y0266202D01*
X0270463Y0266202D01*
X0270080Y0265818D01*
X0270080Y0263900D02*
X0271614Y0263900D01*
X0272382Y0263516D02*
X0273916Y0263516D01*
X0274684Y0263900D02*
X0274684Y0266202D01*
X0275835Y0266202D01*
X0276218Y0265818D01*
X0276218Y0265051D01*
X0275835Y0264667D01*
X0274684Y0264667D01*
X0275451Y0264667D02*
X0276218Y0263900D01*
X0276986Y0263900D02*
X0278520Y0266202D01*
X0276986Y0266202D02*
X0278520Y0263900D01*
X0293278Y0263900D02*
X0293278Y0266202D01*
X0294429Y0266202D01*
X0294813Y0265818D01*
X0294813Y0265051D01*
X0294429Y0264667D01*
X0293278Y0264667D01*
X0295580Y0263900D02*
X0297114Y0265435D01*
X0297114Y0265818D01*
X0296731Y0266202D01*
X0295963Y0266202D01*
X0295580Y0265818D01*
X0295580Y0263900D02*
X0297114Y0263900D01*
X0297882Y0263516D02*
X0299416Y0263516D01*
X0300951Y0263900D02*
X0300951Y0266202D01*
X0300184Y0266202D02*
X0301718Y0266202D01*
X0302486Y0266202D02*
X0304020Y0263900D01*
X0302486Y0263900D02*
X0304020Y0266202D01*
X0316278Y0266202D02*
X0317429Y0266202D01*
X0317813Y0265818D01*
X0317813Y0265051D01*
X0317429Y0264667D01*
X0316278Y0264667D01*
X0316278Y0263900D02*
X0316278Y0266202D01*
X0318580Y0265435D02*
X0319347Y0266202D01*
X0319347Y0263900D01*
X0318580Y0263900D02*
X0320114Y0263900D01*
X0320882Y0263516D02*
X0322416Y0263516D01*
X0323184Y0263900D02*
X0323184Y0266202D01*
X0324335Y0266202D01*
X0324718Y0265818D01*
X0324718Y0265051D01*
X0324335Y0264667D01*
X0323184Y0264667D01*
X0325486Y0263900D02*
X0326253Y0264667D01*
X0327020Y0263900D01*
X0327020Y0266202D01*
X0327788Y0266202D02*
X0328939Y0266202D01*
X0329322Y0265818D01*
X0329322Y0265051D01*
X0328939Y0264667D01*
X0327788Y0264667D01*
X0328555Y0264667D02*
X0329322Y0263900D01*
X0330090Y0263516D02*
X0331624Y0263516D01*
X0333159Y0263900D02*
X0333159Y0266202D01*
X0332392Y0266202D02*
X0333926Y0266202D01*
X0334694Y0266202D02*
X0334694Y0263900D01*
X0336228Y0263900D01*
X0336995Y0264284D02*
X0337379Y0263900D01*
X0338146Y0263900D01*
X0338530Y0264284D01*
X0338530Y0264667D01*
X0338146Y0265051D01*
X0337379Y0265051D01*
X0336995Y0265435D01*
X0336995Y0265818D01*
X0337379Y0266202D01*
X0338146Y0266202D01*
X0338530Y0265818D01*
X0339297Y0266202D02*
X0340832Y0266202D01*
X0340065Y0266202D02*
X0340065Y0263900D01*
X0336228Y0266202D02*
X0334694Y0266202D01*
X0334694Y0265051D02*
X0335461Y0265051D01*
X0327788Y0263900D02*
X0327788Y0266202D01*
X0325486Y0266202D02*
X0325486Y0263900D01*
X0387276Y0214249D02*
X0387276Y0213098D01*
X0389578Y0213098D01*
X0389578Y0214249D01*
X0389194Y0214633D01*
X0387660Y0214633D01*
X0387276Y0214249D01*
X0387276Y0212331D02*
X0389578Y0212331D01*
X0387276Y0210796D01*
X0389578Y0210796D01*
X0389194Y0210029D02*
X0388427Y0210029D01*
X0388427Y0209261D01*
X0387660Y0208494D02*
X0389194Y0208494D01*
X0389578Y0208878D01*
X0389578Y0209645D01*
X0389194Y0210029D01*
X0387660Y0210029D02*
X0387276Y0209645D01*
X0387276Y0208878D01*
X0387660Y0208494D01*
X0387660Y0205133D02*
X0388043Y0205133D01*
X0388427Y0204749D01*
X0388811Y0205133D01*
X0389194Y0205133D01*
X0389578Y0204749D01*
X0389578Y0203982D01*
X0389194Y0203598D01*
X0389194Y0202831D02*
X0389578Y0202831D01*
X0389578Y0202447D01*
X0389194Y0202447D01*
X0389194Y0202831D01*
X0389194Y0201680D02*
X0389578Y0201296D01*
X0389578Y0200529D01*
X0389194Y0200145D01*
X0388427Y0200912D02*
X0388427Y0201296D01*
X0388811Y0201680D01*
X0389194Y0201680D01*
X0388427Y0201296D02*
X0388043Y0201680D01*
X0387660Y0201680D01*
X0387276Y0201296D01*
X0387276Y0200529D01*
X0387660Y0200145D01*
X0387660Y0203598D02*
X0387276Y0203982D01*
X0387276Y0204749D01*
X0387660Y0205133D01*
X0388427Y0204749D02*
X0388427Y0204365D01*
X0388043Y0196133D02*
X0388043Y0194982D01*
X0388427Y0194598D01*
X0389194Y0194598D01*
X0389578Y0194982D01*
X0389578Y0196133D01*
X0389962Y0196133D02*
X0388043Y0196133D01*
X0389962Y0196133D02*
X0390345Y0195749D01*
X0390345Y0195365D01*
X0389578Y0193831D02*
X0389578Y0193063D01*
X0389578Y0193447D02*
X0388043Y0193447D01*
X0388043Y0193063D01*
X0387660Y0192296D02*
X0387276Y0191912D01*
X0387276Y0191145D01*
X0387660Y0190761D01*
X0388043Y0190761D01*
X0388427Y0191145D01*
X0388427Y0191912D01*
X0388811Y0192296D01*
X0389194Y0192296D01*
X0389578Y0191912D01*
X0389578Y0191145D01*
X0389194Y0190761D01*
X0389578Y0189994D02*
X0389578Y0188459D01*
X0389578Y0189227D02*
X0387276Y0189227D01*
X0388043Y0188459D01*
X0387660Y0187692D02*
X0388427Y0187692D01*
X0388811Y0187308D01*
X0388811Y0186157D01*
X0389578Y0186157D02*
X0387276Y0186157D01*
X0387276Y0187308D01*
X0387660Y0187692D01*
X0387276Y0193447D02*
X0386892Y0193447D01*
X0180578Y0279784D02*
X0180194Y0279400D01*
X0178660Y0279400D01*
X0178276Y0279784D01*
X0178276Y0280551D01*
X0178660Y0280935D01*
X0180194Y0280935D01*
X0180578Y0280551D01*
X0180578Y0279784D01*
X0180578Y0281702D02*
X0178276Y0281702D01*
X0178276Y0282853D01*
X0178660Y0283237D01*
X0179427Y0283237D01*
X0179811Y0282853D01*
X0179811Y0281702D01*
X0178276Y0284004D02*
X0178276Y0285539D01*
X0178276Y0284771D02*
X0180578Y0284771D01*
X0180194Y0286306D02*
X0180578Y0286690D01*
X0180578Y0287457D01*
X0180194Y0287841D01*
X0178660Y0287841D01*
X0178276Y0287457D01*
X0178276Y0286690D01*
X0178660Y0286306D01*
X0180194Y0286306D01*
X0180962Y0288608D02*
X0180962Y0290142D01*
X0180578Y0290910D02*
X0178276Y0290910D01*
X0178276Y0292061D01*
X0178660Y0292444D01*
X0179427Y0292444D01*
X0179811Y0292061D01*
X0179811Y0290910D01*
X0180578Y0293212D02*
X0178276Y0293212D01*
X0178276Y0294746D02*
X0180578Y0294746D01*
X0179811Y0293979D01*
X0180578Y0293212D01*
X0180578Y0295514D02*
X0178276Y0295514D01*
X0178276Y0296665D01*
X0178660Y0297048D01*
X0179427Y0297048D01*
X0179811Y0296665D01*
X0179811Y0295514D01*
X0179811Y0296281D02*
X0180578Y0297048D01*
X0057578Y0247433D02*
X0054775Y0247433D01*
X0054775Y0246499D02*
X0054775Y0248367D01*
X0054775Y0245605D02*
X0057111Y0245605D01*
X0057578Y0245138D01*
X0057578Y0244204D01*
X0057111Y0243736D01*
X0054775Y0243736D01*
X0055243Y0242842D02*
X0054775Y0242375D01*
X0054775Y0241441D01*
X0055243Y0240974D01*
X0057111Y0240974D01*
X0057578Y0241441D01*
X0057578Y0242375D01*
X0057111Y0242842D01*
X0055243Y0242842D01*
X0055243Y0240080D02*
X0054775Y0239613D01*
X0054775Y0238212D01*
X0057578Y0238212D01*
X0057578Y0239613D01*
X0057111Y0240080D01*
X0055243Y0240080D01*
X0058045Y0237318D02*
X0058045Y0235449D01*
X0057578Y0234555D02*
X0057578Y0232687D01*
X0054775Y0232687D01*
X0054775Y0234555D01*
X0056177Y0233621D02*
X0056177Y0232687D01*
X0057578Y0231793D02*
X0057578Y0229925D01*
X0054775Y0229925D01*
X0054775Y0231793D01*
X0056177Y0230859D02*
X0056177Y0229925D01*
X0056644Y0229031D02*
X0057111Y0229031D01*
X0057578Y0228564D01*
X0057578Y0227162D01*
X0054775Y0227162D01*
X0054775Y0228564D01*
X0055243Y0229031D01*
X0055710Y0229031D01*
X0056177Y0228564D01*
X0056177Y0227162D01*
X0056177Y0228564D02*
X0056644Y0229031D01*
X0057578Y0226268D02*
X0054775Y0224400D01*
X0054775Y0226268D02*
X0057578Y0224400D01*
X0057578Y0207684D02*
X0054775Y0207684D01*
X0054775Y0205816D02*
X0057578Y0207684D01*
X0057578Y0205816D02*
X0054775Y0205816D01*
X0054775Y0204908D02*
X0054775Y0203974D01*
X0054775Y0204441D02*
X0057578Y0204441D01*
X0057578Y0203974D02*
X0057578Y0204908D01*
X0057111Y0203080D02*
X0055243Y0203080D01*
X0054775Y0202613D01*
X0054775Y0201212D01*
X0057578Y0201212D01*
X0057578Y0202613D01*
X0057111Y0203080D01*
X0058045Y0200318D02*
X0058045Y0198449D01*
X0057578Y0197555D02*
X0057578Y0195687D01*
X0054775Y0195687D01*
X0054775Y0197555D01*
X0056177Y0196621D02*
X0056177Y0195687D01*
X0057578Y0194793D02*
X0057578Y0192925D01*
X0054775Y0192925D01*
X0054775Y0194793D01*
X0056177Y0193859D02*
X0056177Y0192925D01*
X0056644Y0192031D02*
X0057111Y0192031D01*
X0057578Y0191564D01*
X0057578Y0190162D01*
X0054775Y0190162D01*
X0054775Y0191564D01*
X0055243Y0192031D01*
X0055710Y0192031D01*
X0056177Y0191564D01*
X0056177Y0190162D01*
X0056177Y0191564D02*
X0056644Y0192031D01*
X0057578Y0189268D02*
X0054775Y0187400D01*
X0054775Y0189268D02*
X0057578Y0187400D01*
X0057580Y0176202D02*
X0058731Y0176202D01*
X0059114Y0175818D01*
X0059114Y0175435D01*
X0058731Y0175051D01*
X0057580Y0175051D01*
X0058731Y0175051D02*
X0059114Y0174667D01*
X0059114Y0174284D01*
X0058731Y0173900D01*
X0057580Y0173900D01*
X0057580Y0176202D01*
X0056812Y0176202D02*
X0055278Y0173900D01*
X0056812Y0173900D02*
X0055278Y0176202D01*
X0059882Y0176202D02*
X0059882Y0173900D01*
X0061416Y0173900D01*
X0062184Y0173900D02*
X0063718Y0173900D01*
X0064486Y0173516D02*
X0066020Y0173516D01*
X0066788Y0173900D02*
X0066788Y0176202D01*
X0067939Y0176202D01*
X0068322Y0175818D01*
X0068322Y0175051D01*
X0067939Y0174667D01*
X0066788Y0174667D01*
X0069090Y0173900D02*
X0069090Y0176202D01*
X0070624Y0176202D02*
X0070624Y0173900D01*
X0069857Y0174667D01*
X0069090Y0173900D01*
X0071392Y0173900D02*
X0071392Y0176202D01*
X0072543Y0176202D01*
X0072926Y0175818D01*
X0072926Y0175051D01*
X0072543Y0174667D01*
X0071392Y0174667D01*
X0072159Y0174667D02*
X0072926Y0173900D01*
X0073694Y0173516D02*
X0075228Y0173516D01*
X0076763Y0173900D02*
X0076763Y0176202D01*
X0077530Y0176202D02*
X0075995Y0176202D01*
X0078297Y0176202D02*
X0078297Y0173900D01*
X0079832Y0173900D01*
X0080599Y0174284D02*
X0080983Y0173900D01*
X0081750Y0173900D01*
X0082134Y0174284D01*
X0082134Y0174667D01*
X0081750Y0175051D01*
X0080983Y0175051D01*
X0080599Y0175435D01*
X0080599Y0175818D01*
X0080983Y0176202D01*
X0081750Y0176202D01*
X0082134Y0175818D01*
X0082901Y0176202D02*
X0084436Y0176202D01*
X0083669Y0176202D02*
X0083669Y0173900D01*
X0079832Y0176202D02*
X0078297Y0176202D01*
X0078297Y0175051D02*
X0079065Y0175051D01*
X0063718Y0176202D02*
X0062184Y0176202D01*
X0062184Y0173900D01*
X0062184Y0175051D02*
X0062951Y0175051D01*
X0061416Y0176202D02*
X0059882Y0176202D01*
X0059882Y0175051D02*
X0060649Y0175051D01*
X0034237Y0281934D02*
X0034604Y0282301D01*
X0034604Y0283035D01*
X0034237Y0283402D01*
X0033870Y0283402D01*
X0033503Y0283035D01*
X0033503Y0282301D01*
X0033136Y0281934D01*
X0032769Y0281934D01*
X0032402Y0282301D01*
X0032402Y0283035D01*
X0032769Y0283402D01*
X0032402Y0284878D02*
X0032402Y0285612D01*
X0032402Y0285245D02*
X0034237Y0285245D01*
X0034604Y0284878D01*
X0034604Y0284511D01*
X0034237Y0284144D01*
X0034604Y0286354D02*
X0034604Y0287821D01*
X0034604Y0287087D02*
X0032402Y0287087D01*
X0033136Y0286354D01*
X0033503Y0288563D02*
X0033503Y0290031D01*
X0033503Y0290773D02*
X0033503Y0292241D01*
X0032769Y0292983D02*
X0032402Y0293350D01*
X0032402Y0294084D01*
X0032769Y0294451D01*
X0033136Y0294451D01*
X0034604Y0292983D01*
X0034604Y0294451D01*
X0034237Y0295193D02*
X0034604Y0295560D01*
X0034604Y0296294D01*
X0034237Y0296661D01*
X0033503Y0296661D01*
X0033136Y0296294D01*
X0033136Y0295927D01*
X0033503Y0295193D01*
X0032402Y0295193D01*
X0032402Y0296661D01*
X0032769Y0297403D02*
X0032402Y0297770D01*
X0032402Y0298504D01*
X0032769Y0298871D01*
X0033136Y0298871D01*
X0033503Y0298504D01*
X0033870Y0298871D01*
X0034237Y0298871D01*
X0034604Y0298504D01*
X0034604Y0297770D01*
X0034237Y0297403D01*
X0033503Y0298137D02*
X0033503Y0298504D01*
X0033503Y0299613D02*
X0033136Y0300347D01*
X0033136Y0300714D01*
X0033503Y0301081D01*
X0034237Y0301081D01*
X0034604Y0300714D01*
X0034604Y0299980D01*
X0034237Y0299613D01*
X0033503Y0299613D02*
X0032402Y0299613D01*
X0032402Y0301081D01*
X0032402Y0301823D02*
X0032402Y0303291D01*
X0032402Y0302557D02*
X0034604Y0302557D01*
X0034237Y0304033D02*
X0034604Y0304400D01*
X0034604Y0305133D01*
X0034237Y0305500D01*
X0033870Y0305500D01*
X0033503Y0305133D01*
X0033503Y0304400D01*
X0033136Y0304033D01*
X0032769Y0304033D01*
X0032402Y0304400D01*
X0032402Y0305133D01*
X0032769Y0305500D01*
X0046182Y0305501D02*
X0046182Y0304033D01*
X0047282Y0304033D01*
X0046915Y0304767D01*
X0046915Y0305134D01*
X0047282Y0305501D01*
X0048016Y0305501D01*
X0048383Y0305134D01*
X0048383Y0304400D01*
X0048016Y0304033D01*
X0048016Y0302924D02*
X0046182Y0302924D01*
X0046182Y0302557D02*
X0046182Y0303291D01*
X0048016Y0302924D02*
X0048383Y0302557D01*
X0048383Y0302190D01*
X0048016Y0301823D01*
X0034604Y0291874D02*
X0032402Y0291874D01*
X0033503Y0290773D01*
D16*
X0028367Y0308111D02*
X0024430Y0308111D01*
X0024430Y0272678D01*
X0030335Y0272678D01*
X0030335Y0266772D01*
X0050020Y0266772D01*
X0050020Y0272678D01*
X0055926Y0272678D01*
X0055926Y0308111D01*
X0051989Y0308111D01*
X0051989Y0314017D01*
X0028367Y0314017D01*
X0028367Y0308111D01*
X0080178Y0303300D02*
X0081178Y0302300D01*
X0082178Y0303300D01*
X0080178Y0303300D01*
X0080513Y0302965D02*
X0081843Y0302965D01*
X0081344Y0302466D02*
X0081012Y0302466D01*
X0081178Y0302300D02*
X0081178Y0304300D01*
X0027178Y0252300D02*
X0025178Y0252300D01*
X0026178Y0251300D01*
X0027178Y0252300D01*
X0026995Y0252117D02*
X0025361Y0252117D01*
X0025860Y0251618D02*
X0026496Y0251618D01*
X0026178Y0251300D02*
X0026178Y0253300D01*
X0058178Y0242300D02*
X0068178Y0242300D01*
X0068178Y0222300D01*
X0058178Y0222300D01*
X0058178Y0242300D01*
X0058178Y0206300D02*
X0068178Y0206300D01*
X0068178Y0186300D01*
X0058178Y0186300D01*
X0058178Y0206300D01*
X0058178Y0173300D02*
X0078178Y0173300D01*
X0078178Y0163300D01*
X0058178Y0163300D01*
X0058178Y0173300D01*
X0073078Y0150800D02*
X0073078Y0148800D01*
X0072578Y0149800D02*
X0073578Y0149800D01*
X0072978Y0144000D02*
X0072978Y0142000D01*
X0069178Y0132300D02*
X0069178Y0130300D01*
X0068178Y0131300D01*
X0070178Y0131300D01*
X0069178Y0130300D01*
X0068998Y0130480D02*
X0069358Y0130480D01*
X0069856Y0130978D02*
X0068499Y0130978D01*
X0059178Y0131300D02*
X0057178Y0131300D01*
X0058178Y0130300D01*
X0059178Y0131300D01*
X0058856Y0130978D02*
X0057499Y0130978D01*
X0057998Y0130480D02*
X0058358Y0130480D01*
X0058178Y0130300D02*
X0058178Y0132300D01*
X0055178Y0120300D02*
X0125178Y0120300D01*
X0125178Y0070300D01*
X0055178Y0070300D01*
X0055178Y0120300D01*
X0086978Y0142000D02*
X0086978Y0144000D01*
X0087078Y0148800D02*
X0087078Y0150800D01*
X0086578Y0149800D02*
X0087578Y0149800D01*
X0108178Y0162300D02*
X0128178Y0162300D01*
X0128178Y0172300D01*
X0108178Y0172300D01*
X0108178Y0162300D01*
X0123178Y0152300D02*
X0124178Y0153300D01*
X0124178Y0151300D01*
X0123178Y0152300D01*
X0125178Y0152300D01*
X0124178Y0152414D02*
X0123292Y0152414D01*
X0123562Y0151916D02*
X0124178Y0151916D01*
X0124178Y0151417D02*
X0124060Y0151417D01*
X0124178Y0152913D02*
X0123791Y0152913D01*
X0124178Y0143300D02*
X0123178Y0142300D01*
X0124178Y0141300D01*
X0124178Y0143300D01*
X0124178Y0142943D02*
X0123821Y0142943D01*
X0124178Y0142444D02*
X0123322Y0142444D01*
X0123178Y0142300D02*
X0125178Y0142300D01*
X0124178Y0141946D02*
X0123532Y0141946D01*
X0124031Y0141447D02*
X0124178Y0141447D01*
X0144178Y0162300D02*
X0164178Y0162300D01*
X0164178Y0172300D01*
X0144178Y0172300D01*
X0144178Y0162300D01*
X0176178Y0183300D02*
X0266178Y0183300D01*
X0266178Y0013300D01*
X0176178Y0013300D01*
X0176178Y0183300D01*
X0183678Y0186800D02*
X0183678Y0196800D01*
X0283678Y0196800D01*
X0283678Y0186800D01*
X0183678Y0186800D01*
X0183678Y0196800D02*
X0183678Y0206800D01*
X0183678Y0216800D01*
X0283678Y0216800D01*
X0283678Y0206800D01*
X0183678Y0206800D01*
X0283678Y0206800D01*
X0283678Y0196800D01*
X0183678Y0196800D01*
X0221678Y0235300D02*
X0220678Y0236300D01*
X0222678Y0236300D01*
X0221678Y0235300D01*
X0221678Y0237300D01*
X0220814Y0236164D02*
X0222542Y0236164D01*
X0222044Y0235666D02*
X0221312Y0235666D01*
X0232678Y0236300D02*
X0233678Y0235300D01*
X0234678Y0236300D01*
X0232678Y0236300D01*
X0232814Y0236164D02*
X0234542Y0236164D01*
X0234044Y0235666D02*
X0233312Y0235666D01*
X0233678Y0235300D02*
X0233678Y0237300D01*
X0243678Y0236300D02*
X0244678Y0235300D01*
X0245678Y0236300D01*
X0243678Y0236300D01*
X0243814Y0236164D02*
X0245542Y0236164D01*
X0245044Y0235666D02*
X0244312Y0235666D01*
X0244678Y0235300D02*
X0244678Y0237300D01*
X0253678Y0236300D02*
X0254678Y0235300D01*
X0255678Y0236300D01*
X0253678Y0236300D01*
X0253814Y0236164D02*
X0255542Y0236164D01*
X0255044Y0235666D02*
X0254312Y0235666D01*
X0254678Y0235300D02*
X0254678Y0237300D01*
X0268678Y0236300D02*
X0269678Y0235300D01*
X0270678Y0236300D01*
X0268678Y0236300D01*
X0268814Y0236164D02*
X0270542Y0236164D01*
X0270044Y0235666D02*
X0269312Y0235666D01*
X0269678Y0235300D02*
X0269678Y0237300D01*
X0281678Y0236300D02*
X0282678Y0235300D01*
X0283678Y0236300D01*
X0281678Y0236300D01*
X0281814Y0236164D02*
X0283542Y0236164D01*
X0283044Y0235666D02*
X0282312Y0235666D01*
X0282678Y0235300D02*
X0282678Y0237300D01*
X0299178Y0236300D02*
X0300178Y0235300D01*
X0301178Y0236300D01*
X0299178Y0236300D01*
X0299314Y0236164D02*
X0301042Y0236164D01*
X0300544Y0235666D02*
X0299812Y0235666D01*
X0300178Y0235300D02*
X0300178Y0237300D01*
X0310178Y0236300D02*
X0311178Y0235300D01*
X0312178Y0236300D01*
X0310178Y0236300D01*
X0310314Y0236164D02*
X0312042Y0236164D01*
X0311544Y0235666D02*
X0310812Y0235666D01*
X0311178Y0235300D02*
X0311178Y0237300D01*
X0321178Y0236300D02*
X0322178Y0235300D01*
X0323178Y0236300D01*
X0321178Y0236300D01*
X0321314Y0236164D02*
X0323042Y0236164D01*
X0322544Y0235666D02*
X0321812Y0235666D01*
X0322178Y0235300D02*
X0322178Y0237300D01*
X0331178Y0236300D02*
X0332178Y0235300D01*
X0333178Y0236300D01*
X0331178Y0236300D01*
X0331314Y0236164D02*
X0333042Y0236164D01*
X0332544Y0235666D02*
X0331812Y0235666D01*
X0332178Y0235300D02*
X0332178Y0237300D01*
X0336178Y0253300D02*
X0316178Y0253300D01*
X0316178Y0263300D01*
X0336178Y0263300D01*
X0336178Y0253300D01*
X0308178Y0253300D02*
X0288178Y0253300D01*
X0288178Y0263300D01*
X0308178Y0263300D01*
X0308178Y0253300D01*
X0283178Y0253300D02*
X0263178Y0253300D01*
X0263178Y0263300D01*
X0283178Y0263300D01*
X0283178Y0253300D01*
X0270713Y0274741D02*
X0239217Y0274741D01*
X0239217Y0312536D01*
X0270713Y0312536D01*
X0270713Y0274741D01*
X0254178Y0264300D02*
X0254178Y0254300D01*
X0234178Y0254300D01*
X0234178Y0264300D01*
X0254178Y0264300D01*
X0227926Y0259552D02*
X0227926Y0316700D01*
X0192488Y0316700D01*
X0192488Y0259552D01*
X0227926Y0259552D01*
X0191178Y0277800D02*
X0191178Y0297800D01*
X0181178Y0297800D01*
X0181178Y0277800D01*
X0191178Y0277800D01*
X0204678Y0312800D02*
X0204678Y0315300D01*
X0204678Y0312800D02*
X0219678Y0312800D01*
X0219678Y0315300D01*
X0246678Y0312300D02*
X0246678Y0307300D01*
X0264178Y0307300D01*
X0264178Y0312300D01*
X0285678Y0216800D02*
X0285678Y0206800D01*
X0285678Y0196800D01*
X0385678Y0196800D01*
X0385678Y0206800D01*
X0285678Y0206800D01*
X0385678Y0206800D01*
X0385678Y0216800D01*
X0285678Y0216800D01*
X0285678Y0196800D02*
X0285678Y0186800D01*
X0385678Y0186800D01*
X0385678Y0196800D01*
X0285678Y0196800D01*
X0270178Y0183300D02*
X0360178Y0183300D01*
X0360178Y0013300D01*
X0270178Y0013300D01*
X0270178Y0183300D01*
X0368178Y0184300D02*
X0378178Y0184300D01*
X0378178Y0084300D01*
X0368178Y0084300D01*
X0368178Y0184300D01*
X0368178Y0083300D02*
X0378178Y0083300D01*
X0378178Y0033300D01*
X0368178Y0033300D01*
X0368178Y0083300D01*
X0164678Y0049800D02*
X0164678Y0039800D01*
X0164678Y0029800D01*
X0064678Y0029800D01*
X0064678Y0039800D01*
X0164678Y0039800D01*
X0064678Y0039800D01*
X0064678Y0049800D01*
X0164678Y0049800D01*
X0164678Y0029800D02*
X0164678Y0019800D01*
X0064678Y0019800D01*
X0064678Y0029800D01*
X0164678Y0029800D01*
X0117178Y0058300D02*
X0117178Y0068300D01*
X0097178Y0068300D01*
X0097178Y0058300D01*
X0117178Y0058300D01*
X0041146Y0064139D02*
X0021461Y0064139D01*
X0021461Y0079887D01*
X0041146Y0079887D01*
X0041146Y0064139D01*
D17*
X0089378Y0163300D03*
D18*
X0022623Y0068076D02*
X0022625Y0068145D01*
X0022631Y0068213D01*
X0022641Y0068281D01*
X0022655Y0068348D01*
X0022673Y0068415D01*
X0022694Y0068480D01*
X0022720Y0068544D01*
X0022749Y0068606D01*
X0022781Y0068666D01*
X0022817Y0068725D01*
X0022857Y0068781D01*
X0022899Y0068835D01*
X0022945Y0068886D01*
X0022994Y0068935D01*
X0023045Y0068981D01*
X0023099Y0069023D01*
X0023155Y0069063D01*
X0023213Y0069099D01*
X0023274Y0069131D01*
X0023336Y0069160D01*
X0023400Y0069186D01*
X0023465Y0069207D01*
X0023532Y0069225D01*
X0023599Y0069239D01*
X0023667Y0069249D01*
X0023735Y0069255D01*
X0023804Y0069257D01*
X0023873Y0069255D01*
X0023941Y0069249D01*
X0024009Y0069239D01*
X0024076Y0069225D01*
X0024143Y0069207D01*
X0024208Y0069186D01*
X0024272Y0069160D01*
X0024334Y0069131D01*
X0024394Y0069099D01*
X0024453Y0069063D01*
X0024509Y0069023D01*
X0024563Y0068981D01*
X0024614Y0068935D01*
X0024663Y0068886D01*
X0024709Y0068835D01*
X0024751Y0068781D01*
X0024791Y0068725D01*
X0024827Y0068666D01*
X0024859Y0068606D01*
X0024888Y0068544D01*
X0024914Y0068480D01*
X0024935Y0068415D01*
X0024953Y0068348D01*
X0024967Y0068281D01*
X0024977Y0068213D01*
X0024983Y0068145D01*
X0024985Y0068076D01*
X0024983Y0068007D01*
X0024977Y0067939D01*
X0024967Y0067871D01*
X0024953Y0067804D01*
X0024935Y0067737D01*
X0024914Y0067672D01*
X0024888Y0067608D01*
X0024859Y0067546D01*
X0024827Y0067485D01*
X0024791Y0067427D01*
X0024751Y0067371D01*
X0024709Y0067317D01*
X0024663Y0067266D01*
X0024614Y0067217D01*
X0024563Y0067171D01*
X0024509Y0067129D01*
X0024453Y0067089D01*
X0024395Y0067053D01*
X0024334Y0067021D01*
X0024272Y0066992D01*
X0024208Y0066966D01*
X0024143Y0066945D01*
X0024076Y0066927D01*
X0024009Y0066913D01*
X0023941Y0066903D01*
X0023873Y0066897D01*
X0023804Y0066895D01*
X0023735Y0066897D01*
X0023667Y0066903D01*
X0023599Y0066913D01*
X0023532Y0066927D01*
X0023465Y0066945D01*
X0023400Y0066966D01*
X0023336Y0066992D01*
X0023274Y0067021D01*
X0023213Y0067053D01*
X0023155Y0067089D01*
X0023099Y0067129D01*
X0023045Y0067171D01*
X0022994Y0067217D01*
X0022945Y0067266D01*
X0022899Y0067317D01*
X0022857Y0067371D01*
X0022817Y0067427D01*
X0022781Y0067485D01*
X0022749Y0067546D01*
X0022720Y0067608D01*
X0022694Y0067672D01*
X0022673Y0067737D01*
X0022655Y0067804D01*
X0022641Y0067871D01*
X0022631Y0067939D01*
X0022625Y0068007D01*
X0022623Y0068076D01*
D19*
X0378178Y0259300D03*
D20*
X0378178Y0265550D03*
X0378178Y0242050D03*
M02*
